<?xml version="1.0" encoding="UTF-8" standalone="no"?>
<!DOCTYPE svg PUBLIC "-//W3C//DTD SVG 1.1//EN"
 "http://www.w3.org/Graphics/SVG/1.1/DTD/svg11.dtd">
<!-- Generated by graphviz version 14.1.5 (20260411.2331)
 -->
<!-- Title: C:/work/My3DEngine/My3DEngine/Code/Mesh.cpp Pages: 1 -->
<svg width="529pt" height="208pt"
 viewBox="0.00 0.00 529.00 208.00" xmlns="http://www.w3.org/2000/svg" xmlns:xlink="http://www.w3.org/1999/xlink">
<g id="graph0" class="graph" transform="scale(1 1) rotate(0) translate(4 204)">
<title>C:/work/My3DEngine/My3DEngine/Code/Mesh.cpp</title>
<!-- Node1 -->
<g id="Node000001" class="node">
<title>Node1</title>
<g id="a_Node000001"><a xlink:title=" ">
<polygon fill="#999999" stroke="#666666" points="353.25,-200 206,-200 206,-168 353.25,-168 353.25,-200"/>
<text xml:space="preserve" text-anchor="start" x="214" y="-186.5" font-family="Helvetica,sans-Serif" font-size="10.00">C:/work/My3DEngine</text>
<text xml:space="preserve" text-anchor="middle" x="279.62" y="-174.5" font-family="Helvetica,sans-Serif" font-size="10.00">/My3DEngine/Code/Mesh.cpp</text>
</a>
</g>
</g>
<!-- Node2 -->
<g id="Node000002" class="node">
<title>Node2</title>
<g id="a_Node000002"><a xlink:href="_mesh_8h.html" target="_top" xlink:title=" ">
<polygon fill="white" stroke="#666666" points="173.75,-132 125.5,-132 125.5,-112 173.75,-112 173.75,-132"/>
<text xml:space="preserve" text-anchor="middle" x="149.62" y="-118.5" font-family="Helvetica,sans-Serif" font-size="10.00">Mesh.h</text>
</a>
</g>
</g>
<!-- Node1&#45;&gt;Node2 -->
<g id="edge1_Node000001_Node000002" class="edge">
<title>Node1&#45;&gt;Node2</title>
<g id="a_edge1_Node000001_Node000002"><a xlink:title=" ">
<path fill="none" stroke="#63b8ff" d="M246.15,-167.55C225.83,-158.17 200.1,-146.3 180.32,-137.17"/>
<polygon fill="#63b8ff" stroke="#63b8ff" points="181.93,-134.06 171.38,-133.04 179,-140.41 181.93,-134.06"/>
</a>
</g>
</g>
<!-- Node9 -->
<g id="Node000009" class="node">
<title>Node9</title>
<g id="a_Node000009"><a xlink:href="_obj_loader_8h.html" target="_top" xlink:title=" ">
<polygon fill="white" stroke="#666666" points="313.88,-132 245.38,-132 245.38,-112 313.88,-112 313.88,-132"/>
<text xml:space="preserve" text-anchor="middle" x="279.62" y="-118.5" font-family="Helvetica,sans-Serif" font-size="10.00">ObjLoader.h</text>
</a>
</g>
</g>
<!-- Node1&#45;&gt;Node9 -->
<g id="edge8_Node000001_Node000009" class="edge">
<title>Node1&#45;&gt;Node9</title>
<g id="a_edge8_Node000001_Node000009"><a xlink:title=" ">
<path fill="none" stroke="#63b8ff" d="M279.62,-167.55C279.62,-160.34 279.62,-151.66 279.62,-143.88"/>
<polygon fill="#63b8ff" stroke="#63b8ff" points="283.13,-143.92 279.63,-133.92 276.13,-143.92 283.13,-143.92"/>
</a>
</g>
</g>
<!-- Node13 -->
<g id="Node000013" class="node">
<title>Node13</title>
<g id="a_Node000013"><a xlink:title=" ">
<polygon fill="#e0e0e0" stroke="#999999" points="371.25,-132 332,-132 332,-112 371.25,-112 371.25,-132"/>
<text xml:space="preserve" text-anchor="middle" x="351.62" y="-118.5" font-family="Helvetica,sans-Serif" font-size="10.00">utility</text>
</a>
</g>
</g>
<!-- Node1&#45;&gt;Node13 -->
<g id="edge16_Node000001_Node000013" class="edge">
<title>Node1&#45;&gt;Node13</title>
<g id="a_edge16_Node000001_Node000013"><a xlink:title=" ">
<path fill="none" stroke="#63b8ff" d="M298.17,-167.55C308.38,-159.04 321.05,-148.48 331.5,-139.77"/>
<polygon fill="#63b8ff" stroke="#63b8ff" points="333.73,-142.47 339.17,-133.38 329.25,-137.09 333.73,-142.47"/>
</a>
</g>
</g>
<!-- Node3 -->
<g id="Node000003" class="node">
<title>Node3</title>
<g id="a_Node000003"><a xlink:title=" ">
<polygon fill="#e0e0e0" stroke="#999999" points="221.12,-76 178.12,-76 178.12,-56 221.12,-56 221.12,-76"/>
<text xml:space="preserve" text-anchor="middle" x="199.62" y="-62.5" font-family="Helvetica,sans-Serif" font-size="10.00">vector</text>
</a>
</g>
</g>
<!-- Node2&#45;&gt;Node3 -->
<g id="edge2_Node000002_Node000003" class="edge">
<title>Node2&#45;&gt;Node3</title>
<g id="a_edge2_Node000002_Node000003"><a xlink:title=" ">
<path fill="none" stroke="#63b8ff" d="M158.33,-111.59C165.22,-104.16 175.02,-93.58 183.34,-84.58"/>
<polygon fill="#63b8ff" stroke="#63b8ff" points="185.76,-87.12 189.99,-77.41 180.62,-82.37 185.76,-87.12"/>
</a>
</g>
</g>
<!-- Node4 -->
<g id="Node000004" class="node">
<title>Node4</title>
<g id="a_Node000004"><a xlink:title=" ">
<polygon fill="#e0e0e0" stroke="#999999" points="45.25,-76 0,-76 0,-56 45.25,-56 45.25,-76"/>
<text xml:space="preserve" text-anchor="middle" x="22.62" y="-62.5" font-family="Helvetica,sans-Serif" font-size="10.00">cstdint</text>
</a>
</g>
</g>
<!-- Node2&#45;&gt;Node4 -->
<g id="edge3_Node000002_Node000004" class="edge">
<title>Node2&#45;&gt;Node4</title>
<g id="a_edge3_Node000002_Node000004"><a xlink:title=" ">
<path fill="none" stroke="#63b8ff" d="M127.5,-111.59C107.59,-103.13 78.07,-90.58 55.42,-80.94"/>
<polygon fill="#63b8ff" stroke="#63b8ff" points="56.88,-77.76 46.31,-77.07 54.15,-84.21 56.88,-77.76"/>
</a>
</g>
</g>
<!-- Node5 -->
<g id="Node000005" class="node">
<title>Node5</title>
<g id="a_Node000005"><a xlink:title=" ">
<polygon fill="#e0e0e0" stroke="#999999" points="299.62,-20 259.62,-20 259.62,0 299.62,0 299.62,-20"/>
<text xml:space="preserve" text-anchor="middle" x="279.62" y="-6.5" font-family="Helvetica,sans-Serif" font-size="10.00">string</text>
</a>
</g>
</g>
<!-- Node2&#45;&gt;Node5 -->
<g id="edge4_Node000002_Node000005" class="edge">
<title>Node2&#45;&gt;Node5</title>
<g id="a_edge4_Node000002_Node000005"><a xlink:title=" ">
<path fill="none" stroke="#63b8ff" d="M150.04,-111.82C151.14,-98.02 155.13,-71.86 169.62,-56 190.17,-33.52 223.6,-22 248.22,-16.28"/>
<polygon fill="#63b8ff" stroke="#63b8ff" points="248.62,-19.77 257.69,-14.29 247.18,-12.92 248.62,-19.77"/>
</a>
</g>
</g>
<!-- Node6 -->
<g id="Node000006" class="node">
<title>Node6</title>
<g id="a_Node000006"><a xlink:href="_t_vector_8h.html" target="_top" xlink:title=" ">
<polygon fill="white" stroke="#666666" points="121.62,-76 63.62,-76 63.62,-56 121.62,-56 121.62,-76"/>
<text xml:space="preserve" text-anchor="middle" x="92.62" y="-62.5" font-family="Helvetica,sans-Serif" font-size="10.00">TVector.h</text>
</a>
</g>
</g>
<!-- Node2&#45;&gt;Node6 -->
<g id="edge5_Node000002_Node000006" class="edge">
<title>Node2&#45;&gt;Node6</title>
<g id="a_edge5_Node000002_Node000006"><a xlink:title=" ">
<path fill="none" stroke="#63b8ff" d="M139.7,-111.59C131.69,-104.01 120.21,-93.13 110.59,-84.02"/>
<polygon fill="#63b8ff" stroke="#63b8ff" points="113.21,-81.68 103.54,-77.34 108.39,-86.76 113.21,-81.68"/>
</a>
</g>
</g>
<!-- Node7 -->
<g id="Node000007" class="node">
<title>Node7</title>
<g id="a_Node000007"><a xlink:title=" ">
<polygon fill="#e0e0e0" stroke="#999999" points="81.12,-20 38.12,-20 38.12,0 81.12,0 81.12,-20"/>
<text xml:space="preserve" text-anchor="middle" x="59.62" y="-6.5" font-family="Helvetica,sans-Serif" font-size="10.00">cmath</text>
</a>
</g>
</g>
<!-- Node6&#45;&gt;Node7 -->
<g id="edge6_Node000006_Node000007" class="edge">
<title>Node6&#45;&gt;Node7</title>
<g id="a_edge6_Node000006_Node000007"><a xlink:title=" ">
<path fill="none" stroke="#63b8ff" d="M86.88,-55.59C82.57,-48.55 76.53,-38.67 71.24,-30"/>
<polygon fill="#63b8ff" stroke="#63b8ff" points="74.3,-28.3 66.1,-21.59 68.32,-31.95 74.3,-28.3"/>
</a>
</g>
</g>
<!-- Node8 -->
<g id="Node000008" class="node">
<title>Node8</title>
<g id="a_Node000008"><a xlink:title=" ">
<polygon fill="#e0e0e0" stroke="#999999" points="152.38,-20 98.88,-20 98.88,0 152.38,0 152.38,-20"/>
<text xml:space="preserve" text-anchor="middle" x="125.62" y="-6.5" font-family="Helvetica,sans-Serif" font-size="10.00">iostream</text>
</a>
</g>
</g>
<!-- Node6&#45;&gt;Node8 -->
<g id="edge7_Node000006_Node000008" class="edge">
<title>Node6&#45;&gt;Node8</title>
<g id="a_edge7_Node000006_Node000008"><a xlink:title=" ">
<path fill="none" stroke="#63b8ff" d="M98.37,-55.59C102.68,-48.55 108.72,-38.67 114.01,-30"/>
<polygon fill="#63b8ff" stroke="#63b8ff" points="116.93,-31.95 119.15,-21.59 110.95,-28.3 116.93,-31.95"/>
</a>
</g>
</g>
<!-- Node9&#45;&gt;Node3 -->
<g id="edge13_Node000009_Node000003" class="edge">
<title>Node9&#45;&gt;Node3</title>
<g id="a_edge13_Node000009_Node000003"><a xlink:title=" ">
<path fill="none" stroke="#63b8ff" d="M265.69,-111.59C253.95,-103.67 236.89,-92.16 223.06,-82.82"/>
<polygon fill="#63b8ff" stroke="#63b8ff" points="225.17,-80.02 214.92,-77.33 221.25,-85.82 225.17,-80.02"/>
</a>
</g>
</g>
<!-- Node9&#45;&gt;Node5 -->
<g id="edge12_Node000009_Node000005" class="edge">
<title>Node9&#45;&gt;Node5</title>
<g id="a_edge12_Node000009_Node000005"><a xlink:title=" ">
<path fill="none" stroke="#63b8ff" d="M295.23,-111.77C306.86,-103.9 321.84,-91.44 328.62,-76 336.75,-57.51 320.52,-39.4 304.61,-27.01"/>
<polygon fill="#63b8ff" stroke="#63b8ff" points="306.85,-24.31 296.69,-21.31 302.75,-29.99 306.85,-24.31"/>
</a>
</g>
</g>
<!-- Node9&#45;&gt;Node6 -->
<g id="edge11_Node000009_Node000006" class="edge">
<title>Node9&#45;&gt;Node6</title>
<g id="a_edge11_Node000009_Node000006"><a xlink:title=" ">
<path fill="none" stroke="#63b8ff" d="M247.05,-111.59C215.37,-102.44 167.15,-88.52 133.04,-78.67"/>
<polygon fill="#63b8ff" stroke="#63b8ff" points="134.09,-75.33 123.51,-75.92 132.15,-82.06 134.09,-75.33"/>
</a>
</g>
</g>
<!-- Node10 -->
<g id="Node000010" class="node">
<title>Node10</title>
<g id="a_Node000010"><a xlink:href="_i_mesh_loader_8h.html" target="_top" xlink:title=" ">
<polygon fill="white" stroke="#666666" points="319.88,-76 239.38,-76 239.38,-56 319.88,-56 319.88,-76"/>
<text xml:space="preserve" text-anchor="middle" x="279.62" y="-62.5" font-family="Helvetica,sans-Serif" font-size="10.00">IMeshLoader.h</text>
</a>
</g>
</g>
<!-- Node9&#45;&gt;Node10 -->
<g id="edge9_Node000009_Node000010" class="edge">
<title>Node9&#45;&gt;Node10</title>
<g id="a_edge9_Node000009_Node000010"><a xlink:title=" ">
<path fill="none" stroke="#63b8ff" d="M279.62,-111.59C279.62,-105.01 279.62,-95.96 279.62,-87.73"/>
<polygon fill="#63b8ff" stroke="#63b8ff" points="283.13,-87.81 279.63,-77.81 276.13,-87.81 283.13,-87.81"/>
</a>
</g>
</g>
<!-- Node11 -->
<g id="Node000011" class="node">
<title>Node11</title>
<g id="a_Node000011"><a xlink:title=" ">
<polygon fill="#e0e0e0" stroke="#999999" points="458,-76 375.25,-76 375.25,-56 458,-56 458,-76"/>
<text xml:space="preserve" text-anchor="middle" x="416.62" y="-62.5" font-family="Helvetica,sans-Serif" font-size="10.00">unordered_map</text>
</a>
</g>
</g>
<!-- Node9&#45;&gt;Node11 -->
<g id="edge14_Node000009_Node000011" class="edge">
<title>Node9&#45;&gt;Node11</title>
<g id="a_edge14_Node000009_Node000011"><a xlink:title=" ">
<path fill="none" stroke="#63b8ff" d="M303.49,-111.59C325.16,-103.05 357.39,-90.35 381.92,-80.68"/>
<polygon fill="#63b8ff" stroke="#63b8ff" points="383.15,-83.96 391.17,-77.03 380.58,-77.45 383.15,-83.96"/>
</a>
</g>
</g>
<!-- Node12 -->
<g id="Node000012" class="node">
<title>Node12</title>
<g id="a_Node000012"><a xlink:title=" ">
<polygon fill="#e0e0e0" stroke="#999999" points="520.88,-76 476.38,-76 476.38,-56 520.88,-56 520.88,-76"/>
<text xml:space="preserve" text-anchor="middle" x="498.62" y="-62.5" font-family="Helvetica,sans-Serif" font-size="10.00">iosfwd</text>
</a>
</g>
</g>
<!-- Node9&#45;&gt;Node12 -->
<g id="edge15_Node000009_Node000012" class="edge">
<title>Node9&#45;&gt;Node12</title>
<g id="a_edge15_Node000009_Node000012"><a xlink:title=" ">
<path fill="none" stroke="#63b8ff" d="M314.19,-113.1C349.59,-104.91 406.47,-91.51 464.99,-76.35"/>
<polygon fill="#63b8ff" stroke="#63b8ff" points="465.67,-79.79 474.46,-73.88 463.9,-73.01 465.67,-79.79"/>
</a>
</g>
</g>
<!-- Node10&#45;&gt;Node5 -->
<g id="edge10_Node000010_Node000005" class="edge">
<title>Node10&#45;&gt;Node5</title>
<g id="a_edge10_Node000010_Node000005"><a xlink:title=" ">
<path fill="none" stroke="#63b8ff" d="M279.62,-55.59C279.62,-49.01 279.62,-39.96 279.62,-31.73"/>
<polygon fill="#63b8ff" stroke="#63b8ff" points="283.13,-31.81 279.63,-21.81 276.13,-31.81 283.13,-31.81"/>
</a>
</g>
</g>
</g>
</svg>
