<?xml version="1.0" encoding="UTF-8" standalone="no"?>
<!DOCTYPE svg PUBLIC "-//W3C//DTD SVG 1.1//EN"
 "http://www.w3.org/Graphics/SVG/1.1/DTD/svg11.dtd">
<!-- Generated by graphviz version 14.1.5 (20260411.2331)
 -->
<!-- Title: C:/work/My3DEngine/My3DEngine/Code/ObjLoader.h Pages: 1 -->
<svg width="428pt" height="152pt"
 viewBox="0.00 0.00 428.00 152.00" xmlns="http://www.w3.org/2000/svg" xmlns:xlink="http://www.w3.org/1999/xlink">
<g id="graph0" class="graph" transform="scale(1 1) rotate(0) translate(4 148)">
<title>C:/work/My3DEngine/My3DEngine/Code/ObjLoader.h</title>
<!-- Node1 -->
<g id="Node000001" class="node">
<title>Node1</title>
<g id="a_Node000001"><a xlink:title=" ">
<polygon fill="#999999" stroke="#666666" points="277.75,-144 120.75,-144 120.75,-112 277.75,-112 277.75,-144"/>
<text xml:space="preserve" text-anchor="start" x="128.75" y="-130.5" font-family="Helvetica,sans-Serif" font-size="10.00">C:/work/My3DEngine</text>
<text xml:space="preserve" text-anchor="middle" x="199.25" y="-118.5" font-family="Helvetica,sans-Serif" font-size="10.00">/My3DEngine/Code/ObjLoader.h</text>
</a>
</g>
</g>
<!-- Node2 -->
<g id="Node000002" class="node">
<title>Node2</title>
<g id="a_Node000002"><a xlink:href="_i_mesh_loader_8h.html" target="_top" xlink:title=" ">
<polygon fill="white" stroke="#666666" points="80.5,-76 0,-76 0,-56 80.5,-56 80.5,-76"/>
<text xml:space="preserve" text-anchor="middle" x="40.25" y="-62.5" font-family="Helvetica,sans-Serif" font-size="10.00">IMeshLoader.h</text>
</a>
</g>
</g>
<!-- Node1&#45;&gt;Node2 -->
<g id="edge1_Node000001_Node000002" class="edge">
<title>Node1&#45;&gt;Node2</title>
<g id="a_edge1_Node000001_Node000002"><a xlink:title=" ">
<path fill="none" stroke="#63b8ff" d="M158.3,-111.55C132.77,-101.91 100.24,-89.64 75.79,-80.41"/>
<polygon fill="#63b8ff" stroke="#63b8ff" points="77.19,-77.2 66.6,-76.94 74.72,-83.75 77.19,-77.2"/>
</a>
</g>
</g>
<!-- Node3 -->
<g id="Node000003" class="node">
<title>Node3</title>
<g id="a_Node000003"><a xlink:title=" ">
<polygon fill="#e0e0e0" stroke="#999999" points="92.25,-20 52.25,-20 52.25,0 92.25,0 92.25,-20"/>
<text xml:space="preserve" text-anchor="middle" x="72.25" y="-6.5" font-family="Helvetica,sans-Serif" font-size="10.00">string</text>
</a>
</g>
</g>
<!-- Node1&#45;&gt;Node3 -->
<g id="edge6_Node000001_Node000003" class="edge">
<title>Node1&#45;&gt;Node3</title>
<g id="a_edge6_Node000001_Node000003"><a xlink:title=" ">
<path fill="none" stroke="#63b8ff" d="M174.42,-111.66C159.98,-102.21 141.81,-89.36 127.25,-76 111.65,-61.69 96.29,-43.04 85.78,-29.39"/>
<polygon fill="#63b8ff" stroke="#63b8ff" points="88.78,-27.56 79.97,-21.68 83.19,-31.77 88.78,-27.56"/>
</a>
</g>
</g>
<!-- Node4 -->
<g id="Node000004" class="node">
<title>Node4</title>
<g id="a_Node000004"><a xlink:href="_t_vector_8h.html" target="_top" xlink:title=" ">
<polygon fill="white" stroke="#666666" points="194.25,-76 136.25,-76 136.25,-56 194.25,-56 194.25,-76"/>
<text xml:space="preserve" text-anchor="middle" x="165.25" y="-62.5" font-family="Helvetica,sans-Serif" font-size="10.00">TVector.h</text>
</a>
</g>
</g>
<!-- Node1&#45;&gt;Node4 -->
<g id="edge3_Node000001_Node000004" class="edge">
<title>Node1&#45;&gt;Node4</title>
<g id="a_edge3_Node000001_Node000004"><a xlink:title=" ">
<path fill="none" stroke="#63b8ff" d="M190.49,-111.55C186.12,-103.82 180.78,-94.4 176.14,-86.21"/>
<polygon fill="#63b8ff" stroke="#63b8ff" points="179.3,-84.7 171.33,-77.72 173.21,-88.15 179.3,-84.7"/>
</a>
</g>
</g>
<!-- Node7 -->
<g id="Node000007" class="node">
<title>Node7</title>
<g id="a_Node000007"><a xlink:title=" ">
<polygon fill="#e0e0e0" stroke="#999999" points="255.75,-76 212.75,-76 212.75,-56 255.75,-56 255.75,-76"/>
<text xml:space="preserve" text-anchor="middle" x="234.25" y="-62.5" font-family="Helvetica,sans-Serif" font-size="10.00">vector</text>
</a>
</g>
</g>
<!-- Node1&#45;&gt;Node7 -->
<g id="edge7_Node000001_Node000007" class="edge">
<title>Node1&#45;&gt;Node7</title>
<g id="a_edge7_Node000001_Node000007"><a xlink:title=" ">
<path fill="none" stroke="#63b8ff" d="M208.26,-111.55C212.77,-103.82 218.27,-94.4 223.04,-86.21"/>
<polygon fill="#63b8ff" stroke="#63b8ff" points="225.98,-88.12 228,-77.72 219.94,-84.59 225.98,-88.12"/>
</a>
</g>
</g>
<!-- Node8 -->
<g id="Node000008" class="node">
<title>Node8</title>
<g id="a_Node000008"><a xlink:title=" ">
<polygon fill="#e0e0e0" stroke="#999999" points="356.62,-76 273.88,-76 273.88,-56 356.62,-56 356.62,-76"/>
<text xml:space="preserve" text-anchor="middle" x="315.25" y="-62.5" font-family="Helvetica,sans-Serif" font-size="10.00">unordered_map</text>
</a>
</g>
</g>
<!-- Node1&#45;&gt;Node8 -->
<g id="edge8_Node000001_Node000008" class="edge">
<title>Node1&#45;&gt;Node8</title>
<g id="a_edge8_Node000001_Node000008"><a xlink:title=" ">
<path fill="none" stroke="#63b8ff" d="M229.12,-111.55C246.91,-102.35 269.36,-90.74 286.88,-81.68"/>
<polygon fill="#63b8ff" stroke="#63b8ff" points="288.44,-84.81 295.72,-77.1 285.23,-78.59 288.44,-84.81"/>
</a>
</g>
</g>
<!-- Node9 -->
<g id="Node000009" class="node">
<title>Node9</title>
<g id="a_Node000009"><a xlink:title=" ">
<polygon fill="#e0e0e0" stroke="#999999" points="419.5,-76 375,-76 375,-56 419.5,-56 419.5,-76"/>
<text xml:space="preserve" text-anchor="middle" x="397.25" y="-62.5" font-family="Helvetica,sans-Serif" font-size="10.00">iosfwd</text>
</a>
</g>
</g>
<!-- Node1&#45;&gt;Node9 -->
<g id="edge9_Node000001_Node000009" class="edge">
<title>Node1&#45;&gt;Node9</title>
<g id="a_edge9_Node000001_Node000009"><a xlink:title=" ">
<path fill="none" stroke="#63b8ff" d="M250.24,-111.55C286.06,-100.69 332.94,-86.49 364.03,-77.07"/>
<polygon fill="#63b8ff" stroke="#63b8ff" points="364.71,-80.52 373.26,-74.27 362.68,-73.82 364.71,-80.52"/>
</a>
</g>
</g>
<!-- Node2&#45;&gt;Node3 -->
<g id="edge2_Node000002_Node000003" class="edge">
<title>Node2&#45;&gt;Node3</title>
<g id="a_edge2_Node000002_Node000003"><a xlink:title=" ">
<path fill="none" stroke="#63b8ff" d="M45.82,-55.59C50,-48.55 55.85,-38.67 60.99,-30"/>
<polygon fill="#63b8ff" stroke="#63b8ff" points="63.88,-31.99 65.97,-21.6 57.86,-28.42 63.88,-31.99"/>
</a>
</g>
</g>
<!-- Node5 -->
<g id="Node000005" class="node">
<title>Node5</title>
<g id="a_Node000005"><a xlink:title=" ">
<polygon fill="#e0e0e0" stroke="#999999" points="169.75,-20 126.75,-20 126.75,0 169.75,0 169.75,-20"/>
<text xml:space="preserve" text-anchor="middle" x="148.25" y="-6.5" font-family="Helvetica,sans-Serif" font-size="10.00">cmath</text>
</a>
</g>
</g>
<!-- Node4&#45;&gt;Node5 -->
<g id="edge4_Node000004_Node000005" class="edge">
<title>Node4&#45;&gt;Node5</title>
<g id="a_edge4_Node000004_Node000005"><a xlink:title=" ">
<path fill="none" stroke="#63b8ff" d="M162.29,-55.59C160.17,-48.86 157.23,-39.53 154.59,-31.15"/>
<polygon fill="#63b8ff" stroke="#63b8ff" points="157.97,-30.23 151.63,-21.74 151.3,-32.33 157.97,-30.23"/>
</a>
</g>
</g>
<!-- Node6 -->
<g id="Node000006" class="node">
<title>Node6</title>
<g id="a_Node000006"><a xlink:title=" ">
<polygon fill="#e0e0e0" stroke="#999999" points="241,-20 187.5,-20 187.5,0 241,0 241,-20"/>
<text xml:space="preserve" text-anchor="middle" x="214.25" y="-6.5" font-family="Helvetica,sans-Serif" font-size="10.00">iostream</text>
</a>
</g>
</g>
<!-- Node4&#45;&gt;Node6 -->
<g id="edge5_Node000004_Node000006" class="edge">
<title>Node4&#45;&gt;Node6</title>
<g id="a_edge5_Node000004_Node000006"><a xlink:title=" ">
<path fill="none" stroke="#63b8ff" d="M173.79,-55.59C180.53,-48.16 190.14,-37.58 198.29,-28.58"/>
<polygon fill="#63b8ff" stroke="#63b8ff" points="200.67,-31.18 204.8,-21.42 195.48,-26.47 200.67,-31.18"/>
</a>
</g>
</g>
</g>
</svg>
