<?xml version="1.0" encoding="UTF-8" standalone="no"?>
<!DOCTYPE svg PUBLIC "-//W3C//DTD SVG 1.1//EN"
 "http://www.w3.org/Graphics/SVG/1.1/DTD/svg11.dtd">
<!-- Generated by graphviz version 14.1.5 (20260411.2331)
 -->
<!-- Title: C:/work/My3DEngine/My3DEngine/Code/Scene.h Pages: 1 -->
<svg width="726pt" height="200pt"
 viewBox="0.00 0.00 726.00 200.00" xmlns="http://www.w3.org/2000/svg" xmlns:xlink="http://www.w3.org/1999/xlink">
<g id="graph0" class="graph" transform="scale(1 1) rotate(0) translate(4 196)">
<title>C:/work/My3DEngine/My3DEngine/Code/Scene.h</title>
<!-- Node1 -->
<g id="Node000001" class="node">
<title>Node1</title>
<g id="a_Node000001"><a xlink:title=" ">
<polygon fill="#999999" stroke="#666666" points="403.62,-192 263.12,-192 263.12,-160 403.62,-160 403.62,-192"/>
<text xml:space="preserve" text-anchor="start" x="271.12" y="-178.5" font-family="Helvetica,sans-Serif" font-size="10.00">C:/work/My3DEngine</text>
<text xml:space="preserve" text-anchor="middle" x="333.38" y="-166.5" font-family="Helvetica,sans-Serif" font-size="10.00">/My3DEngine/Code/Scene.h</text>
</a>
</g>
</g>
<!-- Node2 -->
<g id="Node000002" class="node">
<title>Node2</title>
<g id="a_Node000002"><a xlink:href="_application_8cpp.html" target="_top" xlink:title=" ">
<polygon fill="white" stroke="#666666" points="368,-38 196.75,-38 196.75,-6 368,-6 368,-38"/>
<text xml:space="preserve" text-anchor="start" x="204.75" y="-24.5" font-family="Helvetica,sans-Serif" font-size="10.00">C:/work/My3DEngine</text>
<text xml:space="preserve" text-anchor="middle" x="282.38" y="-12.5" font-family="Helvetica,sans-Serif" font-size="10.00">/My3DEngine/Code/Application.cpp</text>
</a>
</g>
</g>
<!-- Node1&#45;&gt;Node2 -->
<g id="edge1_Node000001_Node000002" class="edge">
<title>Node1&#45;&gt;Node2</title>
<g id="a_edge1_Node000001_Node000002"><a xlink:title=" ">
<path fill="none" stroke="#63b8ff" d="M315.25,-150.26C310.09,-142.22 304.91,-133.03 301.38,-124 289.99,-94.92 285.29,-58.4 283.46,-38.2"/>
<polygon fill="#63b8ff" stroke="#63b8ff" points="312.31,-152.16 320.82,-158.48 318.11,-148.24 312.31,-152.16"/>
</a>
</g>
</g>
<!-- Node3 -->
<g id="Node000003" class="node">
<title>Node3</title>
<g id="a_Node000003"><a xlink:href="_commands_8h.html" target="_top" xlink:title=" ">
<polygon fill="white" stroke="#666666" points="212.88,-118 49.88,-118 49.88,-86 212.88,-86 212.88,-118"/>
<text xml:space="preserve" text-anchor="start" x="57.88" y="-104.5" font-family="Helvetica,sans-Serif" font-size="10.00">C:/work/My3DEngine</text>
<text xml:space="preserve" text-anchor="middle" x="131.38" y="-92.5" font-family="Helvetica,sans-Serif" font-size="10.00">/My3DEngine/Code/Commands.h</text>
</a>
</g>
</g>
<!-- Node1&#45;&gt;Node3 -->
<g id="edge2_Node000001_Node000003" class="edge">
<title>Node1&#45;&gt;Node3</title>
<g id="a_edge2_Node000001_Node000003"><a xlink:title=" ">
<path fill="none" stroke="#63b8ff" d="M279.28,-155.72C246.5,-144.03 205.24,-129.33 174.64,-118.42"/>
<polygon fill="#63b8ff" stroke="#63b8ff" points="278.02,-158.99 288.62,-159.05 280.37,-152.39 278.02,-158.99"/>
</a>
</g>
</g>
<!-- Node5 -->
<g id="Node000005" class="node">
<title>Node5</title>
<g id="a_Node000005"><a xlink:href="_rendering_pipeline_8h.html" target="_top" xlink:title=" ">
<polygon fill="white" stroke="#666666" points="458.75,-124 310,-124 310,-80 458.75,-80 458.75,-124"/>
<text xml:space="preserve" text-anchor="start" x="318" y="-110.5" font-family="Helvetica,sans-Serif" font-size="10.00">C:/work/My3DEngine</text>
<text xml:space="preserve" text-anchor="start" x="318" y="-98.5" font-family="Helvetica,sans-Serif" font-size="10.00">/My3DEngine/Code/Rendering</text>
<text xml:space="preserve" text-anchor="middle" x="384.38" y="-86.5" font-family="Helvetica,sans-Serif" font-size="10.00">Pipeline.h</text>
</a>
</g>
</g>
<!-- Node1&#45;&gt;Node5 -->
<g id="edge4_Node000001_Node000005" class="edge">
<title>Node1&#45;&gt;Node5</title>
<g id="a_edge4_Node000001_Node000005"><a xlink:title=" ">
<path fill="none" stroke="#63b8ff" d="M350.65,-150.61C356.71,-142.06 363.46,-132.53 369.32,-124.26"/>
<polygon fill="#63b8ff" stroke="#63b8ff" points="347.99,-148.31 345.07,-158.5 353.7,-152.36 347.99,-148.31"/>
</a>
</g>
</g>
<!-- Node8 -->
<g id="Node000008" class="node">
<title>Node8</title>
<g id="a_Node000008"><a xlink:href="_scene_8cpp.html" target="_top" xlink:title=" ">
<polygon fill="white" stroke="#666666" points="627.88,-118 476.88,-118 476.88,-86 627.88,-86 627.88,-118"/>
<text xml:space="preserve" text-anchor="start" x="484.88" y="-104.5" font-family="Helvetica,sans-Serif" font-size="10.00">C:/work/My3DEngine</text>
<text xml:space="preserve" text-anchor="middle" x="552.38" y="-92.5" font-family="Helvetica,sans-Serif" font-size="10.00">/My3DEngine/Code/Scene.cpp</text>
</a>
</g>
</g>
<!-- Node1&#45;&gt;Node8 -->
<g id="edge8_Node000001_Node000008" class="edge">
<title>Node1&#45;&gt;Node8</title>
<g id="a_edge8_Node000001_Node000008"><a xlink:title=" ">
<path fill="none" stroke="#63b8ff" d="M391.1,-156.02C426.79,-144.29 472,-129.42 505.47,-118.42"/>
<polygon fill="#63b8ff" stroke="#63b8ff" points="390.2,-152.63 381.79,-159.08 392.39,-159.28 390.2,-152.63"/>
</a>
</g>
</g>
<!-- Node4 -->
<g id="Node000004" class="node">
<title>Node4</title>
<g id="a_Node000004"><a xlink:href="_input_handler_8cpp.html" target="_top" xlink:title=" ">
<polygon fill="white" stroke="#666666" points="178.75,-38 0,-38 0,-6 178.75,-6 178.75,-38"/>
<text xml:space="preserve" text-anchor="start" x="8" y="-24.5" font-family="Helvetica,sans-Serif" font-size="10.00">C:/work/My3DEngine</text>
<text xml:space="preserve" text-anchor="middle" x="89.38" y="-12.5" font-family="Helvetica,sans-Serif" font-size="10.00">/My3DEngine/Code/InputHandler.cpp</text>
</a>
</g>
</g>
<!-- Node3&#45;&gt;Node4 -->
<g id="edge3_Node000003_Node000004" class="edge">
<title>Node3&#45;&gt;Node4</title>
<g id="a_edge3_Node000003_Node000004"><a xlink:title=" ">
<path fill="none" stroke="#63b8ff" d="M117.64,-75.49C111.04,-63.23 103.35,-48.95 97.66,-38.38"/>
<polygon fill="#63b8ff" stroke="#63b8ff" points="114.54,-77.11 122.36,-84.26 120.7,-73.79 114.54,-77.11"/>
</a>
</g>
</g>
<!-- Node5&#45;&gt;Node2 -->
<g id="edge5_Node000005_Node000002" class="edge">
<title>Node5&#45;&gt;Node2</title>
<g id="a_edge5_Node000005_Node000002"><a xlink:title=" ">
<path fill="none" stroke="#63b8ff" d="M347.77,-73.01C332.5,-61.33 315.36,-48.22 302.45,-38.35"/>
<polygon fill="#63b8ff" stroke="#63b8ff" points="345.23,-75.47 355.3,-78.77 349.48,-69.91 345.23,-75.47"/>
</a>
</g>
</g>
<!-- Node6 -->
<g id="Node000006" class="node">
<title>Node6</title>
<g id="a_Node000006"><a xlink:href="_rendering_pipeline_8cpp.html" target="_top" xlink:title=" ">
<polygon fill="white" stroke="#666666" points="534.75,-44 386,-44 386,0 534.75,0 534.75,-44"/>
<text xml:space="preserve" text-anchor="start" x="394" y="-30.5" font-family="Helvetica,sans-Serif" font-size="10.00">C:/work/My3DEngine</text>
<text xml:space="preserve" text-anchor="start" x="394" y="-18.5" font-family="Helvetica,sans-Serif" font-size="10.00">/My3DEngine/Code/Rendering</text>
<text xml:space="preserve" text-anchor="middle" x="460.38" y="-6.5" font-family="Helvetica,sans-Serif" font-size="10.00">Pipeline.cpp</text>
</a>
</g>
</g>
<!-- Node5&#45;&gt;Node6 -->
<g id="edge6_Node000005_Node000006" class="edge">
<title>Node5&#45;&gt;Node6</title>
<g id="a_edge6_Node000005_Node000006"><a xlink:title=" ">
<path fill="none" stroke="#63b8ff" d="M413.01,-71.62C421.85,-62.53 431.43,-52.71 439.63,-44.29"/>
<polygon fill="#63b8ff" stroke="#63b8ff" points="410.67,-69 406.2,-78.6 415.68,-73.88 410.67,-69"/>
</a>
</g>
</g>
<!-- Node7 -->
<g id="Node000007" class="node">
<title>Node7</title>
<g id="a_Node000007"><a xlink:href="_s_f_m_l_window_provider_8cpp.html" target="_top" xlink:title=" ">
<polygon fill="white" stroke="#666666" points="718,-44 552.75,-44 552.75,0 718,0 718,-44"/>
<text xml:space="preserve" text-anchor="start" x="560.75" y="-30.5" font-family="Helvetica,sans-Serif" font-size="10.00">C:/work/My3DEngine</text>
<text xml:space="preserve" text-anchor="start" x="560.75" y="-18.5" font-family="Helvetica,sans-Serif" font-size="10.00">/My3DEngine/Code/SFMLWindow</text>
<text xml:space="preserve" text-anchor="middle" x="635.38" y="-6.5" font-family="Helvetica,sans-Serif" font-size="10.00">Provider.cpp</text>
</a>
</g>
</g>
<!-- Node5&#45;&gt;Node7 -->
<g id="edge7_Node000005_Node000007" class="edge">
<title>Node5&#45;&gt;Node7</title>
<g id="a_edge7_Node000005_Node000007"><a xlink:title=" ">
<path fill="none" stroke="#63b8ff" d="M464.26,-76.18C497.18,-65.95 534.95,-54.21 566.61,-44.37"/>
<polygon fill="#63b8ff" stroke="#63b8ff" points="463.25,-72.82 454.74,-79.13 465.33,-79.51 463.25,-72.82"/>
</a>
</g>
</g>
</g>
</svg>
