<?xml version="1.0" encoding="UTF-8" standalone="no"?>
<!DOCTYPE svg PUBLIC "-//W3C//DTD SVG 1.1//EN"
 "http://www.w3.org/Graphics/SVG/1.1/DTD/svg11.dtd">
<!-- Generated by graphviz version 14.1.5 (20260411.2331)
 -->
<!-- Title: Matrix4x4::Matrix4x4 Pages: 1 -->
<svg width="903pt" height="482pt"
 viewBox="0.00 0.00 903.00 482.00" xmlns="http://www.w3.org/2000/svg" xmlns:xlink="http://www.w3.org/1999/xlink">
<g id="graph0" class="graph" transform="scale(1 1) rotate(0) translate(4 478.14)">
<title>Matrix4x4::Matrix4x4</title>
<!-- Node1 -->
<g id="Node000001" class="node">
<title>Node1</title>
<g id="a_Node000001"><a xlink:title=" ">
<polygon fill="#999999" stroke="#666666" points="894.75,-248 787.25,-248 787.25,-228 894.75,-228 894.75,-248"/>
<text xml:space="preserve" text-anchor="middle" x="841" y="-234.5" font-family="Helvetica,sans-Serif" font-size="10.00">Matrix4x4::Matrix4x4</text>
</a>
</g>
</g>
<!-- Node2 -->
<g id="Node000002" class="node">
<title>Node2</title>
<g id="a_Node000002"><a xlink:href="class_matrix4x4.html#a14ab2a23b23b1568d1c859d13cd8a13d" target="_top" xlink:title=" ">
<polygon fill="white" stroke="#666666" points="575.88,-466 454.12,-466 454.12,-434 575.88,-434 575.88,-466"/>
<text xml:space="preserve" text-anchor="start" x="462.12" y="-452.5" font-family="Helvetica,sans-Serif" font-size="10.00">Matrix4x4::getProjection</text>
<text xml:space="preserve" text-anchor="middle" x="515" y="-440.5" font-family="Helvetica,sans-Serif" font-size="10.00">Matrix</text>
</a>
</g>
</g>
<!-- Node1&#45;&gt;Node2 -->
<g id="edge1_Node000001_Node000002" class="edge">
<title>Node1&#45;&gt;Node2</title>
<g id="a_edge1_Node000001_Node000002"><a xlink:title=" ">
<path fill="none" stroke="#63b8ff" d="M838.24,-259.87C833.37,-304.17 815.45,-403.92 751.25,-447 699.95,-481.42 627.15,-476.22 576.16,-466.19"/>
<polygon fill="#63b8ff" stroke="#63b8ff" points="841.72,-260.28 839.19,-249.99 834.75,-259.61 841.72,-260.28"/>
</a>
</g>
</g>
<!-- Node5 -->
<g id="Node000005" class="node">
<title>Node5</title>
<g id="a_Node000005"><a xlink:href="class_matrix4x4.html#a491abb9ddb3925e5df2b332498be9746" target="_top" xlink:title=" ">
<polygon fill="white" stroke="#666666" points="747.12,-438 625.38,-438 625.38,-418 747.12,-418 747.12,-438"/>
<text xml:space="preserve" text-anchor="middle" x="686.25" y="-424.5" font-family="Helvetica,sans-Serif" font-size="10.00">Matrix4x4::getRotationX</text>
</a>
</g>
</g>
<!-- Node1&#45;&gt;Node5 -->
<g id="edge4_Node000001_Node000005" class="edge">
<title>Node1&#45;&gt;Node5</title>
<g id="a_edge4_Node000001_Node000005"><a xlink:title=" ">
<path fill="none" stroke="#63b8ff" d="M834.91,-258.92C825.05,-294.98 799.91,-368.81 751.25,-409 747.05,-412.47 742.23,-415.3 737.17,-417.62"/>
<polygon fill="#63b8ff" stroke="#63b8ff" points="838.18,-260.27 837.3,-249.71 831.4,-258.51 838.18,-260.27"/>
</a>
</g>
</g>
<!-- Node9 -->
<g id="Node000009" class="node">
<title>Node9</title>
<g id="a_Node000009"><a xlink:href="class_matrix4x4.html#a2762b936ce24c8de9b61e2fc026246a5" target="_top" xlink:title=" ">
<polygon fill="white" stroke="#666666" points="747.12,-400 625.38,-400 625.38,-380 747.12,-380 747.12,-400"/>
<text xml:space="preserve" text-anchor="middle" x="686.25" y="-386.5" font-family="Helvetica,sans-Serif" font-size="10.00">Matrix4x4::getRotationY</text>
</a>
</g>
</g>
<!-- Node1&#45;&gt;Node9 -->
<g id="edge9_Node000001_Node000009" class="edge">
<title>Node1&#45;&gt;Node9</title>
<g id="a_edge9_Node000001_Node000009"><a xlink:title=" ">
<path fill="none" stroke="#63b8ff" d="M831.64,-258.75C818.76,-288.11 791.29,-341.47 751.25,-371 746.59,-374.44 741.3,-377.26 735.82,-379.57"/>
<polygon fill="#63b8ff" stroke="#63b8ff" points="834.74,-260.41 835.41,-249.83 828.29,-257.69 834.74,-260.41"/>
</a>
</g>
</g>
<!-- Node10 -->
<g id="Node000010" class="node">
<title>Node10</title>
<g id="a_Node000010"><a xlink:href="class_matrix4x4.html#a0ff599e97fc38da77e6975e5509bae4e" target="_top" xlink:title=" ">
<polygon fill="white" stroke="#666666" points="746.75,-362 625.75,-362 625.75,-342 746.75,-342 746.75,-362"/>
<text xml:space="preserve" text-anchor="middle" x="686.25" y="-348.5" font-family="Helvetica,sans-Serif" font-size="10.00">Matrix4x4::getRotationZ</text>
</a>
</g>
</g>
<!-- Node1&#45;&gt;Node10 -->
<g id="edge11_Node000001_Node000010" class="edge">
<title>Node1&#45;&gt;Node10</title>
<g id="a_edge11_Node000001_Node000010"><a xlink:title=" ">
<path fill="none" stroke="#63b8ff" d="M826.79,-257.42C811.18,-278.94 783.23,-313.22 751.25,-333 745.73,-336.41 739.56,-339.24 733.3,-341.58"/>
<polygon fill="#63b8ff" stroke="#63b8ff" points="829.48,-259.69 832.38,-249.5 823.76,-255.66 829.48,-259.69"/>
</a>
</g>
</g>
<!-- Node11 -->
<g id="Node000011" class="node">
<title>Node11</title>
<g id="a_Node000011"><a xlink:href="class_matrix4x4.html#adda1b48e3d0857c0aa3cb84759746b9f" target="_top" xlink:title=" ">
<polygon fill="white" stroke="#666666" points="749.75,-324 622.75,-324 622.75,-304 749.75,-304 749.75,-324"/>
<text xml:space="preserve" text-anchor="middle" x="686.25" y="-310.5" font-family="Helvetica,sans-Serif" font-size="10.00">Matrix4x4::getViewMatrix</text>
</a>
</g>
</g>
<!-- Node1&#45;&gt;Node11 -->
<g id="edge13_Node000001_Node000011" class="edge">
<title>Node1&#45;&gt;Node11</title>
<g id="a_edge13_Node000001_Node000011"><a xlink:title=" ">
<path fill="none" stroke="#63b8ff" d="M817.28,-255.15C799.94,-267.6 775.05,-284.09 751.25,-295 744.19,-298.24 736.44,-301.08 728.85,-303.51"/>
<polygon fill="#63b8ff" stroke="#63b8ff" points="819.33,-257.99 825.34,-249.26 815.2,-252.34 819.33,-257.99"/>
</a>
</g>
</g>
<!-- Node13 -->
<g id="Node000013" class="node">
<title>Node13</title>
<g id="a_Node000013"><a xlink:href="class_matrix4x4.html#add77d4043f094b6455cf1ebeaa57136d" target="_top" xlink:title=" ">
<polygon fill="white" stroke="#666666" points="740,-286 632.5,-286 632.5,-266 740,-266 740,-286"/>
<text xml:space="preserve" text-anchor="middle" x="686.25" y="-272.5" font-family="Helvetica,sans-Serif" font-size="10.00">Matrix4x4::Matrix4x4</text>
</a>
</g>
</g>
<!-- Node1&#45;&gt;Node13 -->
<g id="edge16_Node000001_Node000013" class="edge">
<title>Node1&#45;&gt;Node13</title>
<g id="a_edge16_Node000001_Node000013"><a xlink:title=" ">
<path fill="none" stroke="#63b8ff" d="M786.75,-251.25C767.92,-255.93 747.02,-261.13 729.26,-265.55"/>
<polygon fill="#63b8ff" stroke="#63b8ff" points="787.53,-254.66 796.39,-248.85 785.84,-247.87 787.53,-254.66"/>
</a>
</g>
</g>
<!-- Node14 -->
<g id="Node000014" class="node">
<title>Node14</title>
<g id="a_Node000014"><a xlink:href="class_matrix4x4.html#a9191248d08c7bb2d822353e73f70a456" target="_top" xlink:title=" ">
<polygon fill="white" stroke="#666666" points="740,-248 632.5,-248 632.5,-228 740,-228 740,-248"/>
<text xml:space="preserve" text-anchor="middle" x="686.25" y="-234.5" font-family="Helvetica,sans-Serif" font-size="10.00">Matrix4x4::Matrix4x4</text>
</a>
</g>
</g>
<!-- Node1&#45;&gt;Node14 -->
<g id="edge17_Node000001_Node000014" class="edge">
<title>Node1&#45;&gt;Node14</title>
<g id="a_edge17_Node000001_Node000014"><a xlink:title=" ">
<path fill="none" stroke="#63b8ff" d="M775.85,-238C764.05,-238 751.85,-238 740.41,-238"/>
<polygon fill="#63b8ff" stroke="#63b8ff" points="775.49,-241.5 785.49,-238 775.49,-234.5 775.49,-241.5"/>
</a>
</g>
</g>
<!-- Node15 -->
<g id="Node000015" class="node">
<title>Node15</title>
<g id="a_Node000015"><a xlink:href="class_matrix4x4.html#aa7abb8534e4e83a006096867aba4dea0" target="_top" xlink:title=" ">
<polygon fill="white" stroke="#666666" points="751.25,-210 621.25,-210 621.25,-190 751.25,-190 751.25,-210"/>
<text xml:space="preserve" text-anchor="middle" x="686.25" y="-196.5" font-family="Helvetica,sans-Serif" font-size="10.00">Matrix4x4::multiplyNormal</text>
</a>
</g>
</g>
<!-- Node1&#45;&gt;Node15 -->
<g id="edge18_Node000001_Node000015" class="edge">
<title>Node1&#45;&gt;Node15</title>
<g id="a_edge18_Node000001_Node000015"><a xlink:title=" ">
<path fill="none" stroke="#63b8ff" d="M786.75,-224.75C767.92,-220.07 747.02,-214.87 729.26,-210.45"/>
<polygon fill="#63b8ff" stroke="#63b8ff" points="785.84,-228.13 796.39,-227.15 787.53,-221.34 785.84,-228.13"/>
</a>
</g>
</g>
<!-- Node16 -->
<g id="Node000016" class="node">
<title>Node16</title>
<g id="a_Node000016"><a xlink:href="class_matrix4x4.html#ab9badcc47dbe0138f65fcab107b2932b" target="_top" xlink:title=" ">
<polygon fill="white" stroke="#666666" points="738.12,-172 634.38,-172 634.38,-152 738.12,-152 738.12,-172"/>
<text xml:space="preserve" text-anchor="middle" x="686.25" y="-158.5" font-family="Helvetica,sans-Serif" font-size="10.00">Matrix4x4::operator*</text>
</a>
</g>
</g>
<!-- Node1&#45;&gt;Node16 -->
<g id="edge19_Node000001_Node000016" class="edge">
<title>Node1&#45;&gt;Node16</title>
<g id="a_edge19_Node000001_Node000016"><a xlink:title=" ">
<path fill="none" stroke="#63b8ff" d="M817.28,-220.85C799.94,-208.4 775.05,-191.91 751.25,-181 744.19,-177.76 736.44,-174.92 728.85,-172.49"/>
<polygon fill="#63b8ff" stroke="#63b8ff" points="815.2,-223.66 825.34,-226.74 819.33,-218.01 815.2,-223.66"/>
</a>
</g>
</g>
<!-- Node17 -->
<g id="Node000017" class="node">
<title>Node17</title>
<g id="a_Node000017"><a xlink:href="class_matrix4x4.html#a251a12f10d4e8039768656776c87f91a" target="_top" xlink:title=" ">
<polygon fill="white" stroke="#666666" points="738.12,-134 634.38,-134 634.38,-114 738.12,-114 738.12,-134"/>
<text xml:space="preserve" text-anchor="middle" x="686.25" y="-120.5" font-family="Helvetica,sans-Serif" font-size="10.00">Matrix4x4::operator*</text>
</a>
</g>
</g>
<!-- Node1&#45;&gt;Node17 -->
<g id="edge20_Node000001_Node000017" class="edge">
<title>Node1&#45;&gt;Node17</title>
<g id="a_edge20_Node000001_Node000017"><a xlink:title=" ">
<path fill="none" stroke="#63b8ff" d="M826.79,-218.58C811.18,-197.06 783.23,-162.78 751.25,-143 745.73,-139.59 739.56,-136.76 733.3,-134.42"/>
<polygon fill="#63b8ff" stroke="#63b8ff" points="823.76,-220.34 832.38,-226.5 829.48,-216.31 823.76,-220.34"/>
</a>
</g>
</g>
<!-- Node18 -->
<g id="Node000018" class="node">
<title>Node18</title>
<g id="a_Node000018"><a xlink:href="class_matrix4x4.html#ad01a14d98c16053eb4336f6828d5032f" target="_top" xlink:title=" ">
<polygon fill="white" stroke="#666666" points="738.12,-96 634.38,-96 634.38,-76 738.12,-76 738.12,-96"/>
<text xml:space="preserve" text-anchor="middle" x="686.25" y="-82.5" font-family="Helvetica,sans-Serif" font-size="10.00">Matrix4x4::operator*</text>
</a>
</g>
</g>
<!-- Node1&#45;&gt;Node18 -->
<g id="edge21_Node000001_Node000018" class="edge">
<title>Node1&#45;&gt;Node18</title>
<g id="a_edge21_Node000001_Node000018"><a xlink:title=" ">
<path fill="none" stroke="#63b8ff" d="M831.64,-217.25C818.76,-187.89 791.29,-134.53 751.25,-105 746.59,-101.56 741.3,-98.74 735.82,-96.43"/>
<polygon fill="#63b8ff" stroke="#63b8ff" points="828.29,-218.31 835.41,-226.17 834.74,-215.59 828.29,-218.31"/>
</a>
</g>
</g>
<!-- Node19 -->
<g id="Node000019" class="node">
<title>Node19</title>
<g id="a_Node000019"><a xlink:href="class_matrix4x4.html#a32934b6b8edc580e85a2a2e9210cc8fa" target="_top" xlink:title=" ">
<polygon fill="white" stroke="#666666" points="739.25,-58 633.25,-58 633.25,-38 739.25,-38 739.25,-58"/>
<text xml:space="preserve" text-anchor="middle" x="686.25" y="-44.5" font-family="Helvetica,sans-Serif" font-size="10.00">Matrix4x4::operator=</text>
</a>
</g>
</g>
<!-- Node1&#45;&gt;Node19 -->
<g id="edge22_Node000001_Node000019" class="edge">
<title>Node1&#45;&gt;Node19</title>
<g id="a_edge22_Node000001_Node000019"><a xlink:title=" ">
<path fill="none" stroke="#63b8ff" d="M834.91,-217.08C825.05,-181.02 799.91,-107.19 751.25,-67 747.05,-63.53 742.23,-60.7 737.17,-58.38"/>
<polygon fill="#63b8ff" stroke="#63b8ff" points="831.4,-217.49 837.3,-226.29 838.18,-215.73 831.4,-217.49"/>
</a>
</g>
</g>
<!-- Node20 -->
<g id="Node000020" class="node">
<title>Node20</title>
<g id="a_Node000020"><a xlink:href="class_matrix4x4.html#af8faaf8e49c6950d222253d0d0b429cc" target="_top" xlink:title=" ">
<polygon fill="white" stroke="#666666" points="739.25,-20 633.25,-20 633.25,0 739.25,0 739.25,-20"/>
<text xml:space="preserve" text-anchor="middle" x="686.25" y="-6.5" font-family="Helvetica,sans-Serif" font-size="10.00">Matrix4x4::operator=</text>
</a>
</g>
</g>
<!-- Node1&#45;&gt;Node20 -->
<g id="edge23_Node000001_Node000020" class="edge">
<title>Node1&#45;&gt;Node20</title>
<g id="a_edge23_Node000001_Node000020"><a xlink:title=" ">
<path fill="none" stroke="#63b8ff" d="M836.98,-216.36C829.93,-174.04 808.4,-80.03 751.25,-29 747.36,-25.53 742.86,-22.69 738.08,-20.37"/>
<polygon fill="#63b8ff" stroke="#63b8ff" points="833.49,-216.66 838.47,-226.01 840.4,-215.59 833.49,-216.66"/>
</a>
</g>
</g>
<!-- Node3 -->
<g id="Node000003" class="node">
<title>Node3</title>
<g id="a_Node000003"><a xlink:href="class_rendering_pipeline.html#a18a39b40680d577165e6f8185e482e3f" target="_top" xlink:title=" ">
<polygon fill="white" stroke="#666666" points="237.5,-415 136.75,-415 136.75,-383 237.5,-383 237.5,-415"/>
<text xml:space="preserve" text-anchor="start" x="144.75" y="-401.5" font-family="Helvetica,sans-Serif" font-size="10.00">RenderingPipeline::</text>
<text xml:space="preserve" text-anchor="middle" x="187.12" y="-389.5" font-family="Helvetica,sans-Serif" font-size="10.00">processGeometry</text>
</a>
</g>
</g>
<!-- Node2&#45;&gt;Node3 -->
<g id="edge2_Node000002_Node000003" class="edge">
<title>Node2&#45;&gt;Node3</title>
<g id="a_edge2_Node000002_Node000003"><a xlink:title=" ">
<path fill="none" stroke="#63b8ff" d="M442.77,-442.17C394.78,-436.48 330.13,-428.05 273.5,-418 261.84,-415.93 249.36,-413.36 237.64,-410.78"/>
<polygon fill="#63b8ff" stroke="#63b8ff" points="442.14,-445.61 452.48,-443.3 442.95,-438.66 442.14,-445.61"/>
</a>
</g>
</g>
<!-- Node4 -->
<g id="Node000004" class="node">
<title>Node4</title>
<g id="a_Node000004"><a xlink:href="class_rendering_pipeline.html#a91d87aa3230403bf7c94349bfad57f67" target="_top" xlink:title=" ">
<polygon fill="white" stroke="#666666" points="100.75,-415 0,-415 0,-383 100.75,-383 100.75,-415"/>
<text xml:space="preserve" text-anchor="start" x="8" y="-401.5" font-family="Helvetica,sans-Serif" font-size="10.00">RenderingPipeline::</text>
<text xml:space="preserve" text-anchor="middle" x="50.38" y="-389.5" font-family="Helvetica,sans-Serif" font-size="10.00">render</text>
</a>
</g>
</g>
<!-- Node3&#45;&gt;Node4 -->
<g id="edge3_Node000003_Node000004" class="edge">
<title>Node3&#45;&gt;Node4</title>
<g id="a_edge3_Node000003_Node000004"><a xlink:title=" ">
<path fill="none" stroke="#63b8ff" d="M125.06,-399C116.99,-399 108.8,-399 100.96,-399"/>
<polygon fill="#63b8ff" stroke="#63b8ff" points="124.82,-402.5 134.82,-399 124.82,-395.5 124.82,-402.5"/>
</a>
</g>
</g>
<!-- Node6 -->
<g id="Node000006" class="node">
<title>Node6</title>
<g id="a_Node000006"><a xlink:href="class_object3_d.html#a2fbd77d057f84557cc0a38449b30252a" target="_top" xlink:title=" ">
<polygon fill="white" stroke="#666666" points="585.25,-400 444.75,-400 444.75,-380 585.25,-380 585.25,-400"/>
<text xml:space="preserve" text-anchor="middle" x="515" y="-386.5" font-family="Helvetica,sans-Serif" font-size="10.00">Object3D::getRotationMatrix</text>
</a>
</g>
</g>
<!-- Node5&#45;&gt;Node6 -->
<g id="edge5_Node000005_Node000006" class="edge">
<title>Node5&#45;&gt;Node6</title>
<g id="a_edge5_Node000005_Node000006"><a xlink:title=" ">
<path fill="none" stroke="#63b8ff" d="M627.42,-415.02C606.25,-410.26 582.6,-404.95 562.54,-400.45"/>
<polygon fill="#63b8ff" stroke="#63b8ff" points="626.55,-418.41 637.08,-417.18 628.09,-411.58 626.55,-418.41"/>
</a>
</g>
</g>
<!-- Node7 -->
<g id="Node000007" class="node">
<title>Node7</title>
<g id="a_Node000007"><a xlink:href="class_object3_d.html#a3e973c698696580397e0c70a5f805d11" target="_top" xlink:title=" ">
<polygon fill="white" stroke="#666666" points="406.12,-409 276.12,-409 276.12,-389 406.12,-389 406.12,-409"/>
<text xml:space="preserve" text-anchor="middle" x="341.12" y="-395.5" font-family="Helvetica,sans-Serif" font-size="10.00">Object3D::getModelMatrix</text>
</a>
</g>
</g>
<!-- Node6&#45;&gt;Node7 -->
<g id="edge6_Node000006_Node000007" class="edge">
<title>Node6&#45;&gt;Node7</title>
<g id="a_edge6_Node000006_Node000007"><a xlink:title=" ">
<path fill="none" stroke="#63b8ff" d="M433.29,-394.23C424.31,-394.7 415.25,-395.17 406.52,-395.63"/>
<polygon fill="#63b8ff" stroke="#63b8ff" points="433.27,-397.73 443.08,-393.71 432.91,-390.74 433.27,-397.73"/>
</a>
</g>
</g>
<!-- Node8 -->
<g id="Node000008" class="node">
<title>Node8</title>
<g id="a_Node000008"><a xlink:href="class_object3_d.html#a27e6af8c6aaada9bdf9a588b94fb1530" target="_top" xlink:title=" ">
<polygon fill="white" stroke="#666666" points="408.75,-371 273.5,-371 273.5,-351 408.75,-351 408.75,-371"/>
<text xml:space="preserve" text-anchor="middle" x="341.12" y="-357.5" font-family="Helvetica,sans-Serif" font-size="10.00">Object3D::getNormalMatrix</text>
</a>
</g>
</g>
<!-- Node6&#45;&gt;Node8 -->
<g id="edge8_Node000006_Node000008" class="edge">
<title>Node6&#45;&gt;Node8</title>
<g id="a_edge8_Node000006_Node000008"><a xlink:title=" ">
<path fill="none" stroke="#63b8ff" d="M440.84,-377.66C428.6,-375.59 416.01,-373.47 404.08,-371.45"/>
<polygon fill="#63b8ff" stroke="#63b8ff" points="440.01,-381.07 450.46,-379.28 441.18,-374.16 440.01,-381.07"/>
</a>
</g>
</g>
<!-- Node7&#45;&gt;Node3 -->
<g id="edge7_Node000007_Node000003" class="edge">
<title>Node7&#45;&gt;Node3</title>
<g id="a_edge7_Node000007_Node000003"><a xlink:title=" ">
<path fill="none" stroke="#63b8ff" d="M264.34,-399C255.38,-399 246.4,-399 237.93,-399"/>
<polygon fill="#63b8ff" stroke="#63b8ff" points="264.15,-402.5 274.15,-399 264.15,-395.5 264.15,-402.5"/>
</a>
</g>
</g>
<!-- Node9&#45;&gt;Node6 -->
<g id="edge10_Node000009_Node000006" class="edge">
<title>Node9&#45;&gt;Node6</title>
<g id="a_edge10_Node000009_Node000006"><a xlink:title=" ">
<path fill="none" stroke="#63b8ff" d="M613.81,-390C604.43,-390 594.83,-390 585.48,-390"/>
<polygon fill="#63b8ff" stroke="#63b8ff" points="613.59,-393.5 623.59,-390 613.59,-386.5 613.59,-393.5"/>
</a>
</g>
</g>
<!-- Node10&#45;&gt;Node6 -->
<g id="edge12_Node000010_Node000006" class="edge">
<title>Node10&#45;&gt;Node6</title>
<g id="a_edge12_Node000010_Node000006"><a xlink:title=" ">
<path fill="none" stroke="#63b8ff" d="M627.42,-364.98C606.25,-369.74 582.6,-375.05 562.54,-379.55"/>
<polygon fill="#63b8ff" stroke="#63b8ff" points="628.09,-368.42 637.08,-362.82 626.55,-361.59 628.09,-368.42"/>
</a>
</g>
</g>
<!-- Node12 -->
<g id="Node000012" class="node">
<title>Node12</title>
<g id="a_Node000012"><a xlink:href="class_camera.html#afc3181e5d7044c70454c5e6c13aa9cea" target="_top" xlink:title=" ">
<polygon fill="white" stroke="#666666" points="400.5,-332 281.75,-332 281.75,-312 400.5,-312 400.5,-332"/>
<text xml:space="preserve" text-anchor="middle" x="341.12" y="-318.5" font-family="Helvetica,sans-Serif" font-size="10.00">Camera::getViewMatrix</text>
</a>
</g>
</g>
<!-- Node11&#45;&gt;Node12 -->
<g id="edge14_Node000011_Node000012" class="edge">
<title>Node11&#45;&gt;Node12</title>
<g id="a_edge14_Node000011_Node000012"><a xlink:title=" ">
<path fill="none" stroke="#63b8ff" d="M610.88,-315.73C547.95,-317.2 458.99,-319.28 400.94,-320.63"/>
<polygon fill="#63b8ff" stroke="#63b8ff" points="610.89,-319.23 620.8,-315.5 610.72,-312.24 610.89,-319.23"/>
</a>
</g>
</g>
<!-- Node12&#45;&gt;Node3 -->
<g id="edge15_Node000012_Node000003" class="edge">
<title>Node12&#45;&gt;Node3</title>
<g id="a_edge15_Node000012_Node000003"><a xlink:title=" ">
<path fill="none" stroke="#63b8ff" d="M287.78,-336.08C282.88,-337.88 278.05,-339.86 273.5,-342 249.96,-353.09 225.5,-370.07 208.83,-382.61"/>
<polygon fill="#63b8ff" stroke="#63b8ff" points="288.78,-339.44 297.11,-332.89 286.51,-332.81 288.78,-339.44"/>
</a>
</g>
</g>
</g>
</svg>
