<?xml version="1.0" encoding="UTF-8" standalone="no"?>
<!DOCTYPE svg PUBLIC "-//W3C//DTD SVG 1.1//EN"
 "http://www.w3.org/Graphics/SVG/1.1/DTD/svg11.dtd">
<!-- Generated by graphviz version 14.1.5 (20260411.2331)
 -->
<!-- Title: Application::run Pages: 1 -->
<svg width="418pt" height="66pt"
 viewBox="0.00 0.00 418.00 66.00" xmlns="http://www.w3.org/2000/svg" xmlns:xlink="http://www.w3.org/1999/xlink">
<g id="graph0" class="graph" transform="scale(1 1) rotate(0) translate(4 62)">
<title>Application::run</title>
<!-- Node1 -->
<g id="Node000001" class="node">
<title>Node1</title>
<g id="a_Node000001"><a xlink:title=" ">
<polygon fill="#999999" stroke="#666666" points="83.5,-39 0,-39 0,-19 83.5,-19 83.5,-39"/>
<text xml:space="preserve" text-anchor="middle" x="41.75" y="-25.5" font-family="Helvetica,sans-Serif" font-size="10.00">Application::run</text>
</a>
</g>
</g>
<!-- Node2 -->
<g id="Node000002" class="node">
<title>Node2</title>
<g id="a_Node000002"><a xlink:href="class_application.html#a0ecb7f8541c164ec3d9d47b0c3c8af5f" target="_top" xlink:title=" ">
<polygon fill="white" stroke="#666666" points="245.75,-58 119.5,-58 119.5,-38 245.75,-38 245.75,-58"/>
<text xml:space="preserve" text-anchor="middle" x="182.62" y="-44.5" font-family="Helvetica,sans-Serif" font-size="10.00">Application::processInput</text>
</a>
</g>
</g>
<!-- Node1&#45;&gt;Node2 -->
<g id="edge1_Node000001_Node000002" class="edge">
<title>Node1&#45;&gt;Node2</title>
<g id="a_edge1_Node000001_Node000002"><a xlink:title=" ">
<path fill="none" stroke="#63b8ff" d="M83.67,-34.6C91.31,-35.64 99.52,-36.77 107.8,-37.9"/>
<polygon fill="#63b8ff" stroke="#63b8ff" points="107.23,-41.35 117.61,-39.24 108.18,-34.42 107.23,-41.35"/>
</a>
</g>
</g>
<!-- Node4 -->
<g id="Node000004" class="node">
<title>Node4</title>
<g id="a_Node000004"><a xlink:href="class_application.html#a9ac99d97ee1cc814298a2f2388bde835" target="_top" xlink:title=" ">
<polygon fill="white" stroke="#666666" points="231.12,-20 134.12,-20 134.12,0 231.12,0 231.12,-20"/>
<text xml:space="preserve" text-anchor="middle" x="182.62" y="-6.5" font-family="Helvetica,sans-Serif" font-size="10.00">Application::render</text>
</a>
</g>
</g>
<!-- Node1&#45;&gt;Node4 -->
<g id="edge3_Node000001_Node000004" class="edge">
<title>Node1&#45;&gt;Node4</title>
<g id="a_edge3_Node000001_Node000004"><a xlink:title=" ">
<path fill="none" stroke="#63b8ff" d="M83.67,-23.4C95.79,-21.74 109.33,-19.89 122.37,-18.11"/>
<polygon fill="#63b8ff" stroke="#63b8ff" points="122.73,-21.59 132.16,-16.77 121.78,-14.66 122.73,-21.59"/>
</a>
</g>
</g>
<!-- Node3 -->
<g id="Node000003" class="node">
<title>Node3</title>
<g id="a_Node000003"><a xlink:href="class_input_handler.html#aa60ea4cf6f597f095cbe0aa927ec7fc7" target="_top" xlink:title=" ">
<polygon fill="white" stroke="#666666" points="409.5,-58 281.75,-58 281.75,-38 409.5,-38 409.5,-58"/>
<text xml:space="preserve" text-anchor="middle" x="345.62" y="-44.5" font-family="Helvetica,sans-Serif" font-size="10.00">InputHandler::handleInput</text>
</a>
</g>
</g>
<!-- Node2&#45;&gt;Node3 -->
<g id="edge2_Node000002_Node000003" class="edge">
<title>Node2&#45;&gt;Node3</title>
<g id="a_edge2_Node000002_Node000003"><a xlink:title=" ">
<path fill="none" stroke="#63b8ff" d="M245.87,-48C253.81,-48 262,-48 270.11,-48"/>
<polygon fill="#63b8ff" stroke="#63b8ff" points="269.97,-51.5 279.97,-48 269.97,-44.5 269.97,-51.5"/>
</a>
</g>
</g>
</g>
</svg>
