<?xml version="1.0" encoding="UTF-8" standalone="no"?>
<!DOCTYPE svg PUBLIC "-//W3C//DTD SVG 1.1//EN"
 "http://www.w3.org/Graphics/SVG/1.1/DTD/svg11.dtd">
<!-- Generated by graphviz version 14.1.5 (20260411.2331)
 -->
<!-- Title: Camera::updateCameraVectors Pages: 1 -->
<svg width="363pt" height="66pt"
 viewBox="0.00 0.00 363.00 66.00" xmlns="http://www.w3.org/2000/svg" xmlns:xlink="http://www.w3.org/1999/xlink">
<g id="graph0" class="graph" transform="scale(1 1) rotate(0) translate(4 62)">
<title>Camera::updateCameraVectors</title>
<!-- Node1 -->
<g id="Node000001" class="node">
<title>Node1</title>
<g id="a_Node000001"><a xlink:title=" ">
<polygon fill="#999999" stroke="#666666" points="355.25,-39 202,-39 202,-19 355.25,-19 355.25,-39"/>
<text xml:space="preserve" text-anchor="middle" x="278.62" y="-25.5" font-family="Helvetica,sans-Serif" font-size="10.00">Camera::updateCameraVectors</text>
</a>
</g>
</g>
<!-- Node2 -->
<g id="Node000002" class="node">
<title>Node2</title>
<g id="a_Node000002"><a xlink:href="class_camera.html#ac2d8b7c2b52ccc7895bc2c49a2a6e877" target="_top" xlink:title=" ">
<polygon fill="white" stroke="#666666" points="128.5,-58 37.5,-58 37.5,-38 128.5,-38 128.5,-58"/>
<text xml:space="preserve" text-anchor="middle" x="83" y="-44.5" font-family="Helvetica,sans-Serif" font-size="10.00">Camera::Camera</text>
</a>
</g>
</g>
<!-- Node1&#45;&gt;Node2 -->
<g id="edge1_Node000001_Node000002" class="edge">
<title>Node1&#45;&gt;Node2</title>
<g id="a_edge1_Node000001_Node000002"><a xlink:title=" ">
<path fill="none" stroke="#63b8ff" d="M190.26,-37.57C168.98,-39.66 147.09,-41.81 128.74,-43.61"/>
<polygon fill="#63b8ff" stroke="#63b8ff" points="190.54,-41.06 200.15,-36.6 189.85,-34.1 190.54,-41.06"/>
</a>
</g>
</g>
<!-- Node3 -->
<g id="Node000003" class="node">
<title>Node3</title>
<g id="a_Node000003"><a xlink:href="class_camera.html#ac028c5a8dd6b3d3aed476eb30e8f2980" target="_top" xlink:title=" ">
<polygon fill="white" stroke="#666666" points="166,-20 0,-20 0,0 166,0 166,-20"/>
<text xml:space="preserve" text-anchor="middle" x="83" y="-6.5" font-family="Helvetica,sans-Serif" font-size="10.00">Camera::processMouseMovement</text>
</a>
</g>
</g>
<!-- Node1&#45;&gt;Node3 -->
<g id="edge2_Node000001_Node000003" class="edge">
<title>Node1&#45;&gt;Node3</title>
<g id="a_edge2_Node000001_Node000003"><a xlink:title=" ">
<path fill="none" stroke="#63b8ff" d="M190.45,-20.45C182.47,-19.66 174.4,-18.87 166.46,-18.09"/>
<polygon fill="#63b8ff" stroke="#63b8ff" points="189.85,-23.9 200.15,-21.4 190.54,-16.94 189.85,-23.9"/>
</a>
</g>
</g>
</g>
</svg>
