<?xml version="1.0" encoding="UTF-8" standalone="no"?>
<!DOCTYPE svg PUBLIC "-//W3C//DTD SVG 1.1//EN"
 "http://www.w3.org/Graphics/SVG/1.1/DTD/svg11.dtd">
<!-- Generated by graphviz version 14.1.5 (20260411.2331)
 -->
<!-- Title: Object3D::getModelMatrix Pages: 1 -->
<svg width="623pt" height="142pt"
 viewBox="0.00 0.00 623.00 142.00" xmlns="http://www.w3.org/2000/svg" xmlns:xlink="http://www.w3.org/1999/xlink">
<g id="graph0" class="graph" transform="scale(1 1) rotate(0) translate(4 138)">
<title>Object3D::getModelMatrix</title>
<!-- Node1 -->
<g id="Node000001" class="node">
<title>Node1</title>
<g id="a_Node000001"><a xlink:title=" ">
<polygon fill="#999999" stroke="#666666" points="130,-58 0,-58 0,-38 130,-38 130,-58"/>
<text xml:space="preserve" text-anchor="middle" x="65" y="-44.5" font-family="Helvetica,sans-Serif" font-size="10.00">Object3D::getModelMatrix</text>
</a>
</g>
</g>
<!-- Node2 -->
<g id="Node000002" class="node">
<title>Node2</title>
<g id="a_Node000002"><a xlink:href="class_object3_d.html#a2fbd77d057f84557cc0a38449b30252a" target="_top" xlink:title=" ">
<polygon fill="white" stroke="#666666" points="310.25,-96 169.75,-96 169.75,-76 310.25,-76 310.25,-96"/>
<text xml:space="preserve" text-anchor="middle" x="240" y="-82.5" font-family="Helvetica,sans-Serif" font-size="10.00">Object3D::getRotationMatrix</text>
</a>
</g>
</g>
<!-- Node1&#45;&gt;Node2 -->
<g id="edge1_Node000001_Node000002" class="edge">
<title>Node1&#45;&gt;Node2</title>
<g id="a_edge1_Node000001_Node000002"><a xlink:title=" ">
<path fill="none" stroke="#63b8ff" d="M113.73,-58.48C134.34,-63.01 158.65,-68.35 180.35,-73.12"/>
<polygon fill="#63b8ff" stroke="#63b8ff" points="179.43,-76.5 189.95,-75.23 180.93,-69.66 179.43,-76.5"/>
</a>
</g>
</g>
<!-- Node7 -->
<g id="Node000007" class="node">
<title>Node7</title>
<g id="a_Node000007"><a xlink:href="class_object3_d.html#a682723b3cb9c098c506278f2ec9bc917" target="_top" xlink:title=" ">
<polygon fill="white" stroke="#666666" points="304.25,-58 175.75,-58 175.75,-38 304.25,-38 304.25,-58"/>
<text xml:space="preserve" text-anchor="middle" x="240" y="-44.5" font-family="Helvetica,sans-Serif" font-size="10.00">Object3D::getScaleMatrix</text>
</a>
</g>
</g>
<!-- Node1&#45;&gt;Node7 -->
<g id="edge8_Node000001_Node000007" class="edge">
<title>Node1&#45;&gt;Node7</title>
<g id="a_edge8_Node000001_Node000007"><a xlink:title=" ">
<path fill="none" stroke="#63b8ff" d="M130.42,-48C141.33,-48 152.74,-48 163.89,-48"/>
<polygon fill="#63b8ff" stroke="#63b8ff" points="163.88,-51.5 173.88,-48 163.88,-44.5 163.88,-51.5"/>
</a>
</g>
</g>
<!-- Node8 -->
<g id="Node000008" class="node">
<title>Node8</title>
<g id="a_Node000008"><a xlink:href="class_object3_d.html#a3849cf35e2901f0e838896f02ad3cc21" target="_top" xlink:title=" ">
<polygon fill="white" stroke="#666666" points="314,-20 166,-20 166,0 314,0 314,-20"/>
<text xml:space="preserve" text-anchor="middle" x="240" y="-6.5" font-family="Helvetica,sans-Serif" font-size="10.00">Object3D::getTransformMatrix</text>
</a>
</g>
</g>
<!-- Node1&#45;&gt;Node8 -->
<g id="edge9_Node000001_Node000008" class="edge">
<title>Node1&#45;&gt;Node8</title>
<g id="a_edge9_Node000001_Node000008"><a xlink:title=" ">
<path fill="none" stroke="#63b8ff" d="M113.73,-37.52C134.34,-32.99 158.65,-27.65 180.35,-22.88"/>
<polygon fill="#63b8ff" stroke="#63b8ff" points="180.93,-26.34 189.95,-20.77 179.43,-19.5 180.93,-26.34"/>
</a>
</g>
</g>
<!-- Node3 -->
<g id="Node000003" class="node">
<title>Node3</title>
<g id="a_Node000003"><a xlink:href="class_matrix4x4.html#a491abb9ddb3925e5df2b332498be9746" target="_top" xlink:title=" ">
<polygon fill="white" stroke="#666666" points="471.75,-134 350,-134 350,-114 471.75,-114 471.75,-134"/>
<text xml:space="preserve" text-anchor="middle" x="410.88" y="-120.5" font-family="Helvetica,sans-Serif" font-size="10.00">Matrix4x4::getRotationX</text>
</a>
</g>
</g>
<!-- Node2&#45;&gt;Node3 -->
<g id="edge2_Node000002_Node000003" class="edge">
<title>Node2&#45;&gt;Node3</title>
<g id="a_edge2_Node000002_Node000003"><a xlink:title=" ">
<path fill="none" stroke="#63b8ff" d="M287.59,-96.48C307.62,-100.99 331.23,-106.3 352.33,-111.05"/>
<polygon fill="#63b8ff" stroke="#63b8ff" points="351.43,-114.44 361.96,-113.22 352.97,-107.61 351.43,-114.44"/>
</a>
</g>
</g>
<!-- Node5 -->
<g id="Node000005" class="node">
<title>Node5</title>
<g id="a_Node000005"><a xlink:href="class_matrix4x4.html#a2762b936ce24c8de9b61e2fc026246a5" target="_top" xlink:title=" ">
<polygon fill="white" stroke="#666666" points="471.75,-96 350,-96 350,-76 471.75,-76 471.75,-96"/>
<text xml:space="preserve" text-anchor="middle" x="410.88" y="-82.5" font-family="Helvetica,sans-Serif" font-size="10.00">Matrix4x4::getRotationY</text>
</a>
</g>
</g>
<!-- Node2&#45;&gt;Node5 -->
<g id="edge4_Node000002_Node000005" class="edge">
<title>Node2&#45;&gt;Node5</title>
<g id="a_edge4_Node000002_Node000005"><a xlink:title=" ">
<path fill="none" stroke="#63b8ff" d="M310.66,-86C319.73,-86 329.04,-86 338.15,-86"/>
<polygon fill="#63b8ff" stroke="#63b8ff" points="338.02,-89.5 348.02,-86 338.02,-82.5 338.02,-89.5"/>
</a>
</g>
</g>
<!-- Node6 -->
<g id="Node000006" class="node">
<title>Node6</title>
<g id="a_Node000006"><a xlink:href="class_matrix4x4.html#a0ff599e97fc38da77e6975e5509bae4e" target="_top" xlink:title=" ">
<polygon fill="white" stroke="#666666" points="471.38,-58 350.38,-58 350.38,-38 471.38,-38 471.38,-58"/>
<text xml:space="preserve" text-anchor="middle" x="410.88" y="-44.5" font-family="Helvetica,sans-Serif" font-size="10.00">Matrix4x4::getRotationZ</text>
</a>
</g>
</g>
<!-- Node2&#45;&gt;Node6 -->
<g id="edge6_Node000002_Node000006" class="edge">
<title>Node2&#45;&gt;Node6</title>
<g id="a_edge6_Node000002_Node000006"><a xlink:title=" ">
<path fill="none" stroke="#63b8ff" d="M287.59,-75.52C307.62,-71.01 331.23,-65.7 352.33,-60.95"/>
<polygon fill="#63b8ff" stroke="#63b8ff" points="352.97,-64.39 361.96,-58.78 351.43,-57.56 352.97,-64.39"/>
</a>
</g>
</g>
<!-- Node4 -->
<g id="Node000004" class="node">
<title>Node4</title>
<g id="a_Node000004"><a xlink:href="class_matrix4x4.html#a5062df9900847f9a161069a7d3156442" target="_top" xlink:title=" ">
<polygon fill="white" stroke="#666666" points="615.25,-96 507.75,-96 507.75,-76 615.25,-76 615.25,-96"/>
<text xml:space="preserve" text-anchor="middle" x="561.5" y="-82.5" font-family="Helvetica,sans-Serif" font-size="10.00">Matrix4x4::Matrix4x4</text>
</a>
</g>
</g>
<!-- Node3&#45;&gt;Node4 -->
<g id="edge3_Node000003_Node000004" class="edge">
<title>Node3&#45;&gt;Node4</title>
<g id="a_edge3_Node000003_Node000004"><a xlink:title=" ">
<path fill="none" stroke="#63b8ff" d="M452.88,-113.52C470.1,-109.11 490.33,-103.94 508.57,-99.28"/>
<polygon fill="#63b8ff" stroke="#63b8ff" points="509.34,-102.69 518.16,-96.82 507.61,-95.91 509.34,-102.69"/>
</a>
</g>
</g>
<!-- Node5&#45;&gt;Node4 -->
<g id="edge5_Node000005_Node000004" class="edge">
<title>Node5&#45;&gt;Node4</title>
<g id="a_edge5_Node000005_Node000004"><a xlink:title=" ">
<path fill="none" stroke="#63b8ff" d="M471.9,-86C479.89,-86 488.12,-86 496.18,-86"/>
<polygon fill="#63b8ff" stroke="#63b8ff" points="495.92,-89.5 505.92,-86 495.92,-82.5 495.92,-89.5"/>
</a>
</g>
</g>
<!-- Node6&#45;&gt;Node4 -->
<g id="edge7_Node000006_Node000004" class="edge">
<title>Node6&#45;&gt;Node4</title>
<g id="a_edge7_Node000006_Node000004"><a xlink:title=" ">
<path fill="none" stroke="#63b8ff" d="M452.88,-58.48C470.1,-62.89 490.33,-68.06 508.57,-72.72"/>
<polygon fill="#63b8ff" stroke="#63b8ff" points="507.61,-76.09 518.16,-75.18 509.34,-69.31 507.61,-76.09"/>
</a>
</g>
</g>
</g>
</svg>
