<?xml version="1.0" encoding="UTF-8" standalone="no"?>
<!DOCTYPE svg PUBLIC "-//W3C//DTD SVG 1.1//EN"
 "http://www.w3.org/Graphics/SVG/1.1/DTD/svg11.dtd">
<!-- Generated by graphviz version 14.1.5 (20260411.2331)
 -->
<!-- Title: Camera::getViewMatrix Pages: 1 -->
<svg width="433pt" height="104pt"
 viewBox="0.00 0.00 433.00 104.00" xmlns="http://www.w3.org/2000/svg" xmlns:xlink="http://www.w3.org/1999/xlink">
<g id="graph0" class="graph" transform="scale(1 1) rotate(0) translate(4 100)">
<title>Camera::getViewMatrix</title>
<!-- Node1 -->
<g id="Node000001" class="node">
<title>Node1</title>
<g id="a_Node000001"><a xlink:title=" ">
<polygon fill="#999999" stroke="#666666" points="118.75,-58 0,-58 0,-38 118.75,-38 118.75,-58"/>
<text xml:space="preserve" text-anchor="middle" x="59.38" y="-44.5" font-family="Helvetica,sans-Serif" font-size="10.00">Camera::getViewMatrix</text>
</a>
</g>
</g>
<!-- Node2 -->
<g id="Node000002" class="node">
<title>Node2</title>
<g id="a_Node000002"><a xlink:href="class_matrix4x4.html#adda1b48e3d0857c0aa3cb84759746b9f" target="_top" xlink:title=" ">
<polygon fill="white" stroke="#666666" points="281.75,-58 154.75,-58 154.75,-38 281.75,-38 281.75,-58"/>
<text xml:space="preserve" text-anchor="middle" x="218.25" y="-44.5" font-family="Helvetica,sans-Serif" font-size="10.00">Matrix4x4::getViewMatrix</text>
</a>
</g>
</g>
<!-- Node1&#45;&gt;Node2 -->
<g id="edge1_Node000001_Node000002" class="edge">
<title>Node1&#45;&gt;Node2</title>
<g id="a_edge1_Node000001_Node000002"><a xlink:title=" ">
<path fill="none" stroke="#63b8ff" d="M119.24,-48C127.04,-48 135.11,-48 143.13,-48"/>
<polygon fill="#63b8ff" stroke="#63b8ff" points="142.87,-51.5 152.87,-48 142.87,-44.5 142.87,-51.5"/>
</a>
</g>
</g>
<!-- Node3 -->
<g id="Node000003" class="node">
<title>Node3</title>
<g id="a_Node000003"><a xlink:href="struct_vector3.html#ac4697b88093ec3e11a0122c997bc6a4f" target="_top" xlink:title=" ">
<polygon fill="white" stroke="#666666" points="411,-96 332,-96 332,-76 411,-76 411,-96"/>
<text xml:space="preserve" text-anchor="middle" x="371.5" y="-82.5" font-family="Helvetica,sans-Serif" font-size="10.00">Vector3::cross</text>
</a>
</g>
</g>
<!-- Node2&#45;&gt;Node3 -->
<g id="edge2_Node000002_Node000003" class="edge">
<title>Node2&#45;&gt;Node3</title>
<g id="a_edge2_Node000002_Node000003"><a xlink:title=" ">
<path fill="none" stroke="#63b8ff" d="M260.98,-58.48C279.4,-63.11 301.2,-68.59 320.49,-73.43"/>
<polygon fill="#63b8ff" stroke="#63b8ff" points="319.48,-76.79 330.04,-75.83 321.19,-70 319.48,-76.79"/>
</a>
</g>
</g>
<!-- Node4 -->
<g id="Node000004" class="node">
<title>Node4</title>
<g id="a_Node000004"><a xlink:href="struct_vector3.html#a38ce3a31a6553d8235786d5882543c6d" target="_top" xlink:title=" ">
<polygon fill="white" stroke="#666666" points="405.75,-58 337.25,-58 337.25,-38 405.75,-38 405.75,-58"/>
<text xml:space="preserve" text-anchor="middle" x="371.5" y="-44.5" font-family="Helvetica,sans-Serif" font-size="10.00">Vector3::dot</text>
</a>
</g>
</g>
<!-- Node2&#45;&gt;Node4 -->
<g id="edge3_Node000002_Node000004" class="edge">
<title>Node2&#45;&gt;Node4</title>
<g id="a_edge3_Node000002_Node000004"><a xlink:title=" ">
<path fill="none" stroke="#63b8ff" d="M282.08,-48C296.64,-48 311.86,-48 325.48,-48"/>
<polygon fill="#63b8ff" stroke="#63b8ff" points="325.47,-51.5 335.47,-48 325.47,-44.5 325.47,-51.5"/>
</a>
</g>
</g>
<!-- Node5 -->
<g id="Node000005" class="node">
<title>Node5</title>
<g id="a_Node000005"><a xlink:href="class_matrix4x4.html#a5062df9900847f9a161069a7d3156442" target="_top" xlink:title=" ">
<polygon fill="white" stroke="#666666" points="425.25,-20 317.75,-20 317.75,0 425.25,0 425.25,-20"/>
<text xml:space="preserve" text-anchor="middle" x="371.5" y="-6.5" font-family="Helvetica,sans-Serif" font-size="10.00">Matrix4x4::Matrix4x4</text>
</a>
</g>
</g>
<!-- Node2&#45;&gt;Node5 -->
<g id="edge4_Node000002_Node000005" class="edge">
<title>Node2&#45;&gt;Node5</title>
<g id="a_edge4_Node000002_Node000005"><a xlink:title=" ">
<path fill="none" stroke="#63b8ff" d="M260.98,-37.52C278.59,-33.09 299.28,-27.89 317.92,-23.21"/>
<polygon fill="#63b8ff" stroke="#63b8ff" points="318.59,-26.65 327.44,-20.82 316.89,-19.86 318.59,-26.65"/>
</a>
</g>
</g>
</g>
</svg>
