<?xml version="1.0" encoding="UTF-8" standalone="no"?>
<!DOCTYPE svg PUBLIC "-//W3C//DTD SVG 1.1//EN"
 "http://www.w3.org/Graphics/SVG/1.1/DTD/svg11.dtd">
<!-- Generated by graphviz version 14.1.5 (20260411.2331)
 -->
<!-- Title: C:/work/My3DEngine/My3DEngine/Code/main.cpp Pages: 1 -->
<svg width="345pt" height="152pt"
 viewBox="0.00 0.00 345.00 152.00" xmlns="http://www.w3.org/2000/svg" xmlns:xlink="http://www.w3.org/1999/xlink">
<g id="graph0" class="graph" transform="scale(1 1) rotate(0) translate(4 148)">
<title>C:/work/My3DEngine/My3DEngine/Code/main.cpp</title>
<!-- Node1 -->
<g id="Node000001" class="node">
<title>Node1</title>
<g id="a_Node000001"><a xlink:title=" ">
<polygon fill="#999999" stroke="#666666" points="276.75,-144 132.5,-144 132.5,-112 276.75,-112 276.75,-144"/>
<text xml:space="preserve" text-anchor="start" x="140.5" y="-130.5" font-family="Helvetica,sans-Serif" font-size="10.00">C:/work/My3DEngine</text>
<text xml:space="preserve" text-anchor="middle" x="204.62" y="-118.5" font-family="Helvetica,sans-Serif" font-size="10.00">/My3DEngine/Code/main.cpp</text>
</a>
</g>
</g>
<!-- Node2 -->
<g id="Node000002" class="node">
<title>Node2</title>
<g id="a_Node000002"><a xlink:href="_application_8h.html" target="_top" xlink:title=" ">
<polygon fill="white" stroke="#666666" points="126.75,-76 54.5,-76 54.5,-56 126.75,-56 126.75,-76"/>
<text xml:space="preserve" text-anchor="middle" x="90.62" y="-62.5" font-family="Helvetica,sans-Serif" font-size="10.00">Application.h</text>
</a>
</g>
</g>
<!-- Node1&#45;&gt;Node2 -->
<g id="edge1_Node000001_Node000002" class="edge">
<title>Node1&#45;&gt;Node2</title>
<g id="a_edge1_Node000001_Node000002"><a xlink:title=" ">
<path fill="none" stroke="#63b8ff" d="M175.27,-111.55C157.78,-102.35 135.72,-90.74 118.51,-81.68"/>
<polygon fill="#63b8ff" stroke="#63b8ff" points="120.32,-78.67 109.84,-77.11 117.06,-84.87 120.32,-78.67"/>
</a>
</g>
</g>
<!-- Node6 -->
<g id="Node000006" class="node">
<title>Node6</title>
<g id="a_Node000006"><a xlink:title=" ">
<polygon fill="#e0e0e0" stroke="#999999" points="198.38,-76 144.88,-76 144.88,-56 198.38,-56 198.38,-76"/>
<text xml:space="preserve" text-anchor="middle" x="171.62" y="-62.5" font-family="Helvetica,sans-Serif" font-size="10.00">iostream</text>
</a>
</g>
</g>
<!-- Node1&#45;&gt;Node6 -->
<g id="edge5_Node000001_Node000006" class="edge">
<title>Node1&#45;&gt;Node6</title>
<g id="a_edge5_Node000001_Node000006"><a xlink:title=" ">
<path fill="none" stroke="#63b8ff" d="M196.13,-111.55C191.93,-103.91 186.81,-94.61 182.34,-86.49"/>
<polygon fill="#63b8ff" stroke="#63b8ff" points="185.41,-84.81 177.53,-77.73 179.28,-88.18 185.41,-84.81"/>
</a>
</g>
</g>
<!-- Node7 -->
<g id="Node000007" class="node">
<title>Node7</title>
<g id="a_Node000007"><a xlink:title=" ">
<polygon fill="#e0e0e0" stroke="#999999" points="260.88,-76 216.38,-76 216.38,-56 260.88,-56 260.88,-76"/>
<text xml:space="preserve" text-anchor="middle" x="238.62" y="-62.5" font-family="Helvetica,sans-Serif" font-size="10.00">cstdlib</text>
</a>
</g>
</g>
<!-- Node1&#45;&gt;Node7 -->
<g id="edge6_Node000001_Node000007" class="edge">
<title>Node1&#45;&gt;Node7</title>
<g id="a_edge6_Node000001_Node000007"><a xlink:title=" ">
<path fill="none" stroke="#63b8ff" d="M213.38,-111.55C217.76,-103.82 223.1,-94.4 227.74,-86.21"/>
<polygon fill="#63b8ff" stroke="#63b8ff" points="230.66,-88.15 232.55,-77.72 224.57,-84.7 230.66,-88.15"/>
</a>
</g>
</g>
<!-- Node8 -->
<g id="Node000008" class="node">
<title>Node8</title>
<g id="a_Node000008"><a xlink:title=" ">
<polygon fill="#e0e0e0" stroke="#999999" points="336.62,-76 278.62,-76 278.62,-56 336.62,-56 336.62,-76"/>
<text xml:space="preserve" text-anchor="middle" x="307.62" y="-62.5" font-family="Helvetica,sans-Serif" font-size="10.00">exception</text>
</a>
</g>
</g>
<!-- Node1&#45;&gt;Node8 -->
<g id="edge7_Node000001_Node000008" class="edge">
<title>Node1&#45;&gt;Node8</title>
<g id="a_edge7_Node000001_Node000008"><a xlink:title=" ">
<path fill="none" stroke="#63b8ff" d="M231.15,-111.55C246.65,-102.52 266.13,-91.17 281.55,-82.19"/>
<polygon fill="#63b8ff" stroke="#63b8ff" points="283.29,-85.23 290.17,-77.17 279.76,-79.18 283.29,-85.23"/>
</a>
</g>
</g>
<!-- Node3 -->
<g id="Node000003" class="node">
<title>Node3</title>
<g id="a_Node000003"><a xlink:title=" ">
<polygon fill="#e0e0e0" stroke="#999999" points="51.25,-20 0,-20 0,0 51.25,0 51.25,-20"/>
<text xml:space="preserve" text-anchor="middle" x="25.62" y="-6.5" font-family="Helvetica,sans-Serif" font-size="10.00">memory</text>
</a>
</g>
</g>
<!-- Node2&#45;&gt;Node3 -->
<g id="edge2_Node000002_Node000003" class="edge">
<title>Node2&#45;&gt;Node3</title>
<g id="a_edge2_Node000002_Node000003"><a xlink:title=" ">
<path fill="none" stroke="#63b8ff" d="M79.3,-55.59C69.98,-47.85 56.55,-36.69 45.45,-27.47"/>
<polygon fill="#63b8ff" stroke="#63b8ff" points="47.91,-24.96 37.98,-21.27 43.44,-30.35 47.91,-24.96"/>
</a>
</g>
</g>
<!-- Node4 -->
<g id="Node000004" class="node">
<title>Node4</title>
<g id="a_Node000004"><a xlink:title=" ">
<polygon fill="#e0e0e0" stroke="#999999" points="112.12,-20 69.12,-20 69.12,0 112.12,0 112.12,-20"/>
<text xml:space="preserve" text-anchor="middle" x="90.62" y="-6.5" font-family="Helvetica,sans-Serif" font-size="10.00">vector</text>
</a>
</g>
</g>
<!-- Node2&#45;&gt;Node4 -->
<g id="edge3_Node000002_Node000004" class="edge">
<title>Node2&#45;&gt;Node4</title>
<g id="a_edge3_Node000002_Node000004"><a xlink:title=" ">
<path fill="none" stroke="#63b8ff" d="M90.62,-55.59C90.62,-49.01 90.62,-39.96 90.62,-31.73"/>
<polygon fill="#63b8ff" stroke="#63b8ff" points="94.13,-31.81 90.63,-21.81 87.13,-31.81 94.13,-31.81"/>
</a>
</g>
</g>
<!-- Node5 -->
<g id="Node000005" class="node">
<title>Node5</title>
<g id="a_Node000005"><a xlink:href="_engine_input_8h.html" target="_top" xlink:title=" ">
<polygon fill="white" stroke="#666666" points="206.62,-20 130.62,-20 130.62,0 206.62,0 206.62,-20"/>
<text xml:space="preserve" text-anchor="middle" x="168.62" y="-6.5" font-family="Helvetica,sans-Serif" font-size="10.00">EngineInput.h</text>
</a>
</g>
</g>
<!-- Node2&#45;&gt;Node5 -->
<g id="edge4_Node000002_Node000005" class="edge">
<title>Node2&#45;&gt;Node5</title>
<g id="a_edge4_Node000002_Node000005"><a xlink:title=" ">
<path fill="none" stroke="#63b8ff" d="M104.21,-55.59C115.66,-47.67 132.29,-36.16 145.78,-26.82"/>
<polygon fill="#63b8ff" stroke="#63b8ff" points="147.46,-29.91 153.69,-21.34 143.47,-24.16 147.46,-29.91"/>
</a>
</g>
</g>
</g>
</svg>
