<?xml version="1.0" encoding="UTF-8" standalone="no"?>
<!DOCTYPE svg PUBLIC "-//W3C//DTD SVG 1.1//EN"
 "http://www.w3.org/Graphics/SVG/1.1/DTD/svg11.dtd">
<!-- Generated by graphviz version 14.1.5 (20260411.2331)
 -->
<!-- Title: Vector3::normalize Pages: 1 -->
<svg width="720pt" height="104pt"
 viewBox="0.00 0.00 720.00 104.00" xmlns="http://www.w3.org/2000/svg" xmlns:xlink="http://www.w3.org/1999/xlink">
<g id="graph0" class="graph" transform="scale(1 1) rotate(0) translate(4 100)">
<title>Vector3::normalize</title>
<!-- Node1 -->
<g id="Node000001" class="node">
<title>Node1</title>
<g id="a_Node000001"><a xlink:title=" ">
<polygon fill="#999999" stroke="#666666" points="712.25,-77 615.25,-77 615.25,-57 712.25,-57 712.25,-77"/>
<text xml:space="preserve" text-anchor="middle" x="663.75" y="-63.5" font-family="Helvetica,sans-Serif" font-size="10.00">Vector3::normalize</text>
</a>
</g>
</g>
<!-- Node2 -->
<g id="Node000002" class="node">
<title>Node2</title>
<g id="a_Node000002"><a xlink:href="class_obj_loader.html#a8ce7c62748c31749adfdf413707392bb" target="_top" xlink:title=" ">
<polygon fill="white" stroke="#666666" points="563.5,-96 441.75,-96 441.75,-76 563.5,-76 563.5,-96"/>
<text xml:space="preserve" text-anchor="middle" x="502.62" y="-82.5" font-family="Helvetica,sans-Serif" font-size="10.00">ObjLoader::parseNormal</text>
</a>
</g>
</g>
<!-- Node1&#45;&gt;Node2 -->
<g id="edge1_Node000001_Node000002" class="edge">
<title>Node1&#45;&gt;Node2</title>
<g id="a_edge1_Node000001_Node000002"><a xlink:title=" ">
<path fill="none" stroke="#63b8ff" d="M603.77,-74.04C590.71,-75.6 576.86,-77.26 563.75,-78.82"/>
<polygon fill="#63b8ff" stroke="#63b8ff" points="603.99,-77.54 613.5,-72.88 603.16,-70.59 603.99,-77.54"/>
</a>
</g>
</g>
<!-- Node6 -->
<g id="Node000006" class="node">
<title>Node6</title>
<g id="a_Node000006"><a xlink:href="class_camera.html#ad424b8b92e580508caf21337b69b93fa" target="_top" xlink:title=" ">
<polygon fill="white" stroke="#666666" points="579.25,-58 426,-58 426,-38 579.25,-38 579.25,-58"/>
<text xml:space="preserve" text-anchor="middle" x="502.62" y="-44.5" font-family="Helvetica,sans-Serif" font-size="10.00">Camera::updateCameraVectors</text>
</a>
</g>
</g>
<!-- Node1&#45;&gt;Node6 -->
<g id="edge5_Node000001_Node000006" class="edge">
<title>Node1&#45;&gt;Node6</title>
<g id="a_edge5_Node000001_Node000006"><a xlink:title=" ">
<path fill="none" stroke="#63b8ff" d="M603.73,-59.95C595.86,-59.01 587.71,-58.04 579.61,-57.07"/>
<polygon fill="#63b8ff" stroke="#63b8ff" points="603.16,-63.41 613.5,-61.12 603.99,-56.46 603.16,-63.41"/>
</a>
</g>
</g>
<!-- Node3 -->
<g id="Node000003" class="node">
<title>Node3</title>
<g id="a_Node000003"><a xlink:href="class_obj_loader.html#a7d01d506c694d98beaeda40aa0d8268b" target="_top" xlink:title=" ">
<polygon fill="white" stroke="#666666" points="349.12,-96 264.88,-96 264.88,-76 349.12,-76 349.12,-96"/>
<text xml:space="preserve" text-anchor="middle" x="307" y="-82.5" font-family="Helvetica,sans-Serif" font-size="10.00">ObjLoader::load</text>
</a>
</g>
</g>
<!-- Node2&#45;&gt;Node3 -->
<g id="edge2_Node000002_Node000003" class="edge">
<title>Node2&#45;&gt;Node3</title>
<g id="a_edge2_Node000002_Node000003"><a xlink:title=" ">
<path fill="none" stroke="#63b8ff" d="M430,-86C402.86,-86 372.9,-86 349.45,-86"/>
<polygon fill="#63b8ff" stroke="#63b8ff" points="429.91,-89.5 439.91,-86 429.91,-82.5 429.91,-89.5"/>
</a>
</g>
</g>
<!-- Node4 -->
<g id="Node000004" class="node">
<title>Node4</title>
<g id="a_Node000004"><a xlink:href="class_mesh.html#af9671edd2400ced26e8d2691e87bb822" target="_top" xlink:title=" ">
<polygon fill="white" stroke="#666666" points="188,-96 106,-96 106,-76 188,-76 188,-96"/>
<text xml:space="preserve" text-anchor="middle" x="147" y="-82.5" font-family="Helvetica,sans-Serif" font-size="10.00">Mesh::serialize</text>
</a>
</g>
</g>
<!-- Node3&#45;&gt;Node4 -->
<g id="edge3_Node000003_Node000004" class="edge">
<title>Node3&#45;&gt;Node4</title>
<g id="a_edge3_Node000003_Node000004"><a xlink:title=" ">
<path fill="none" stroke="#63b8ff" d="M253.1,-86C231.99,-86 208.09,-86 188.42,-86"/>
<polygon fill="#63b8ff" stroke="#63b8ff" points="252.97,-89.5 262.97,-86 252.97,-82.5 252.97,-89.5"/>
</a>
</g>
</g>
<!-- Node5 -->
<g id="Node000005" class="node">
<title>Node5</title>
<g id="a_Node000005"><a xlink:href="class_mesh.html#a585fb4d96f66dfe2f50e9f0973162fd7" target="_top" xlink:title=" ">
<polygon fill="white" stroke="#666666" points="70,-96 0,-96 0,-76 70,-76 70,-96"/>
<text xml:space="preserve" text-anchor="middle" x="35" y="-82.5" font-family="Helvetica,sans-Serif" font-size="10.00">Mesh::Mesh</text>
</a>
</g>
</g>
<!-- Node4&#45;&gt;Node5 -->
<g id="edge4_Node000004_Node000005" class="edge">
<title>Node4&#45;&gt;Node5</title>
<g id="a_edge4_Node000004_Node000005"><a xlink:title=" ">
<path fill="none" stroke="#63b8ff" d="M94.25,-86C86.08,-86 77.82,-86 70.18,-86"/>
<polygon fill="#63b8ff" stroke="#63b8ff" points="94.15,-89.5 104.15,-86 94.15,-82.5 94.15,-89.5"/>
</a>
</g>
</g>
<!-- Node7 -->
<g id="Node000007" class="node">
<title>Node7</title>
<g id="a_Node000007"><a xlink:href="class_camera.html#ac2d8b7c2b52ccc7895bc2c49a2a6e877" target="_top" xlink:title=" ">
<polygon fill="white" stroke="#666666" points="352.5,-58 261.5,-58 261.5,-38 352.5,-38 352.5,-58"/>
<text xml:space="preserve" text-anchor="middle" x="307" y="-44.5" font-family="Helvetica,sans-Serif" font-size="10.00">Camera::Camera</text>
</a>
</g>
</g>
<!-- Node6&#45;&gt;Node7 -->
<g id="edge6_Node000006_Node000007" class="edge">
<title>Node6&#45;&gt;Node7</title>
<g id="a_edge6_Node000006_Node000007"><a xlink:title=" ">
<path fill="none" stroke="#63b8ff" d="M414.26,-48C392.98,-48 371.09,-48 352.74,-48"/>
<polygon fill="#63b8ff" stroke="#63b8ff" points="414.14,-51.5 424.14,-48 414.14,-44.5 414.14,-51.5"/>
</a>
</g>
</g>
<!-- Node8 -->
<g id="Node000008" class="node">
<title>Node8</title>
<g id="a_Node000008"><a xlink:href="class_camera.html#ac028c5a8dd6b3d3aed476eb30e8f2980" target="_top" xlink:title=" ">
<polygon fill="white" stroke="#666666" points="390,-20 224,-20 224,0 390,0 390,-20"/>
<text xml:space="preserve" text-anchor="middle" x="307" y="-6.5" font-family="Helvetica,sans-Serif" font-size="10.00">Camera::processMouseMovement</text>
</a>
</g>
</g>
<!-- Node6&#45;&gt;Node8 -->
<g id="edge7_Node000006_Node000008" class="edge">
<title>Node6&#45;&gt;Node8</title>
<g id="a_edge7_Node000006_Node000008"><a xlink:title=" ">
<path fill="none" stroke="#63b8ff" d="M437.13,-35.34C412.5,-30.51 384.72,-25.06 361.25,-20.45"/>
<polygon fill="#63b8ff" stroke="#63b8ff" points="436.23,-38.73 446.72,-37.22 437.58,-31.86 436.23,-38.73"/>
</a>
</g>
</g>
</g>
</svg>
