<?xml version="1.0" encoding="UTF-8" standalone="no"?>
<!DOCTYPE svg PUBLIC "-//W3C//DTD SVG 1.1//EN"
 "http://www.w3.org/Graphics/SVG/1.1/DTD/svg11.dtd">
<!-- Generated by graphviz version 14.1.5 (20260411.2331)
 -->
<!-- Title: RenderingPipeline::TrianglesSoA Pages: 1 -->
<svg width="101pt" height="152pt"
 viewBox="0.00 0.00 101.00 152.00" xmlns="http://www.w3.org/2000/svg" xmlns:xlink="http://www.w3.org/1999/xlink">
<g id="graph0" class="graph" transform="scale(1 1) rotate(0) translate(4 148)">
<title>RenderingPipeline::TrianglesSoA</title>
<!-- Node1 -->
<g id="Node000001" class="node">
<title>Node1</title>
<g id="a_Node000001"><a xlink:title=" ">
<polygon fill="#999999" stroke="none" points="92.75,-144 0,-144 0,0 92.75,0 92.75,-144"/>
<text xml:space="preserve" text-anchor="start" x="4" y="-130.25" font-family="Helvetica,sans-Serif" font-size="10.00">RenderingPipeline::</text>
<text xml:space="preserve" text-anchor="start" x="17.12" y="-118.25" font-family="Helvetica,sans-Serif" font-size="10.00">TrianglesSoA</text>
<text xml:space="preserve" text-anchor="start" x="11.44" y="-102.25" font-family="Helvetica,sans-Serif" font-size="10.00">+</text>
<text xml:space="preserve" text-anchor="start" x="28.88" y="-102.25" font-family="Helvetica,sans-Serif" font-size="10.00">v0</text>
<text xml:space="preserve" text-anchor="start" x="11.44" y="-86.25" font-family="Helvetica,sans-Serif" font-size="10.00">+</text>
<text xml:space="preserve" text-anchor="start" x="28.88" y="-86.25" font-family="Helvetica,sans-Serif" font-size="10.00">v1</text>
<text xml:space="preserve" text-anchor="start" x="11.44" y="-70.25" font-family="Helvetica,sans-Serif" font-size="10.00">+</text>
<text xml:space="preserve" text-anchor="start" x="28.88" y="-70.25" font-family="Helvetica,sans-Serif" font-size="10.00">v2</text>
<text xml:space="preserve" text-anchor="start" x="11.44" y="-54.25" font-family="Helvetica,sans-Serif" font-size="10.00">+</text>
<text xml:space="preserve" text-anchor="start" x="28.88" y="-54.25" font-family="Helvetica,sans-Serif" font-size="10.00">colors</text>
<text xml:space="preserve" text-anchor="start" x="11.44" y="-38.25" font-family="Helvetica,sans-Serif" font-size="10.00">+</text>
<text xml:space="preserve" text-anchor="start" x="28.88" y="-38.25" font-family="Helvetica,sans-Serif" font-size="10.00">depths</text>
<text xml:space="preserve" text-anchor="start" x="11.44" y="-22.25" font-family="Helvetica,sans-Serif" font-size="10.00">+</text>
<text xml:space="preserve" text-anchor="start" x="28.88" y="-22.25" font-family="Helvetica,sans-Serif" font-size="10.00">drawOrder</text>
<text xml:space="preserve" text-anchor="start" x="11.44" y="-6.25" font-family="Helvetica,sans-Serif" font-size="10.00">+</text>
<text xml:space="preserve" text-anchor="start" x="28.88" y="-6.25" font-family="Helvetica,sans-Serif" font-size="10.00">resize()</text>
<polygon fill="#666666" stroke="#666666" points="0,-114 0,-114 92.75,-114 92.75,-114 0,-114"/>
<polygon fill="#666666" stroke="#666666" points="0,-18 0,-18 26.88,-18 26.88,-18 0,-18"/>
<polygon fill="#666666" stroke="#666666" points="26.88,-18 26.88,-18 92.75,-18 92.75,-18 26.88,-18"/>
<polygon fill="none" stroke="#666666" points="0,0 0,-144 92.75,-144 92.75,0 0,0"/>
</a>
</g>
</g>
</g>
</svg>
